<svg xmlns="http://www.w3.org/2000/svg" viewBox="0 0 750 1050" width="750" height="1050">
<defs>
<linearGradient id="goldGrad" x1="0" y1="0" x2="0" y2="1">
  <stop offset="0%" stop-color="#ffe893"></stop>
  <stop offset="50%" stop-color="#f4cc4e"></stop>
  <stop offset="100%" stop-color="#cf9a22"></stop>
</linearGradient>
<linearGradient id="goldDark" x1="0" y1="0" x2="0" y2="1">
  <stop offset="0%" stop-color="#cf9a22"></stop>
  <stop offset="100%" stop-color="#7a5810"></stop>
</linearGradient>
<radialGradient id="bgVignette" cx="50%" cy="50%" r="70%">
  <stop offset="0%" stop-color="#1a1820"></stop>
  <stop offset="100%" stop-color="#0a080d"></stop>
</radialGradient></defs>

<rect width="750" height="1050" fill="url(#bgVignette)"></rect>
<rect x="20" y="20" width="710" height="1010" rx="46" ry="46" fill="#15131a" stroke="url(#goldGrad)" stroke-width="3"></rect>
<rect x="38" y="38" width="674" height="974" rx="34" ry="34" fill="none" stroke="url(#goldDark)" stroke-width="1.5"></rect>

<g font-family="Georgia, &#39;Times New Roman&#39;, serif" font-weight="700" fill="url(#goldGrad)">
  <text x="105" y="180" font-size="124" text-anchor="middle" stroke="#7a5810" stroke-width="1.5">9</text>
  <g transform="translate(105 270) rotate(0) scale(0.85)">
    <path d="M 0 -55 L 38 0 L 0 55 L -38 0 Z" fill="url(#goldGrad)" stroke="#7a5810" stroke-width="2"></path>
    <path d="M 0 -55 L 38 0 L 0 55 L -38 0 Z" fill="none" stroke="#fff4c8" stroke-width="0.8" opacity="0.4"></path>
  </g>
</g>
<g transform="rotate(180 375 525)">
<g font-family="Georgia, &#39;Times New Roman&#39;, serif" font-weight="700" fill="url(#goldGrad)">
  <text x="105" y="180" font-size="124" text-anchor="middle" stroke="#7a5810" stroke-width="1.5">9</text>
  <g transform="translate(105 270) rotate(0) scale(0.85)">
    <path d="M 0 -55 L 38 0 L 0 55 L -38 0 Z" fill="url(#goldGrad)" stroke="#7a5810" stroke-width="2"></path>
    <path d="M 0 -55 L 38 0 L 0 55 L -38 0 Z" fill="none" stroke="#fff4c8" stroke-width="0.8" opacity="0.4"></path>
  </g>
</g></g>
<g transform="translate(270 295) rotate(0) scale(1.4)">
    <path d="M 0 -55 L 38 0 L 0 55 L -38 0 Z" fill="url(#goldGrad)" stroke="#7a5810" stroke-width="2"></path>
    <path d="M 0 -55 L 38 0 L 0 55 L -38 0 Z" fill="none" stroke="#fff4c8" stroke-width="0.8" opacity="0.4"></path>
  </g><g transform="translate(480 295) rotate(0) scale(1.4)">
    <path d="M 0 -55 L 38 0 L 0 55 L -38 0 Z" fill="url(#goldGrad)" stroke="#7a5810" stroke-width="2"></path>
    <path d="M 0 -55 L 38 0 L 0 55 L -38 0 Z" fill="none" stroke="#fff4c8" stroke-width="0.8" opacity="0.4"></path>
  </g><g transform="translate(270 420) rotate(0) scale(1.4)">
    <path d="M 0 -55 L 38 0 L 0 55 L -38 0 Z" fill="url(#goldGrad)" stroke="#7a5810" stroke-width="2"></path>
    <path d="M 0 -55 L 38 0 L 0 55 L -38 0 Z" fill="none" stroke="#fff4c8" stroke-width="0.8" opacity="0.4"></path>
  </g><g transform="translate(480 420) rotate(0) scale(1.4)">
    <path d="M 0 -55 L 38 0 L 0 55 L -38 0 Z" fill="url(#goldGrad)" stroke="#7a5810" stroke-width="2"></path>
    <path d="M 0 -55 L 38 0 L 0 55 L -38 0 Z" fill="none" stroke="#fff4c8" stroke-width="0.8" opacity="0.4"></path>
  </g><g transform="translate(375 525) rotate(0) scale(1.4)">
    <path d="M 0 -55 L 38 0 L 0 55 L -38 0 Z" fill="url(#goldGrad)" stroke="#7a5810" stroke-width="2"></path>
    <path d="M 0 -55 L 38 0 L 0 55 L -38 0 Z" fill="none" stroke="#fff4c8" stroke-width="0.8" opacity="0.4"></path>
  </g><g transform="translate(270 630) rotate(180) scale(1.4)">
    <path d="M 0 -55 L 38 0 L 0 55 L -38 0 Z" fill="url(#goldGrad)" stroke="#7a5810" stroke-width="2"></path>
    <path d="M 0 -55 L 38 0 L 0 55 L -38 0 Z" fill="none" stroke="#fff4c8" stroke-width="0.8" opacity="0.4"></path>
  </g><g transform="translate(480 630) rotate(180) scale(1.4)">
    <path d="M 0 -55 L 38 0 L 0 55 L -38 0 Z" fill="url(#goldGrad)" stroke="#7a5810" stroke-width="2"></path>
    <path d="M 0 -55 L 38 0 L 0 55 L -38 0 Z" fill="none" stroke="#fff4c8" stroke-width="0.8" opacity="0.4"></path>
  </g><g transform="translate(270 755) rotate(180) scale(1.4)">
    <path d="M 0 -55 L 38 0 L 0 55 L -38 0 Z" fill="url(#goldGrad)" stroke="#7a5810" stroke-width="2"></path>
    <path d="M 0 -55 L 38 0 L 0 55 L -38 0 Z" fill="none" stroke="#fff4c8" stroke-width="0.8" opacity="0.4"></path>
  </g><g transform="translate(480 755) rotate(180) scale(1.4)">
    <path d="M 0 -55 L 38 0 L 0 55 L -38 0 Z" fill="url(#goldGrad)" stroke="#7a5810" stroke-width="2"></path>
    <path d="M 0 -55 L 38 0 L 0 55 L -38 0 Z" fill="none" stroke="#fff4c8" stroke-width="0.8" opacity="0.4"></path>
  </g>
</svg>