<svg xmlns="http://www.w3.org/2000/svg" viewBox="0 0 750 1050" width="750" height="1050">
<defs>
  <linearGradient id="goldGrad" x1="0" y1="0" x2="0" y2="1">
    <stop offset="0%" stop-color="#ffe28a"></stop>
    <stop offset="50%" stop-color="#f4c34a"></stop>
    <stop offset="100%" stop-color="#c89320"></stop>
  </linearGradient>
  <linearGradient id="goldGradFlip" x1="0" y1="1" x2="0" y2="0">
    <stop offset="0%" stop-color="#ffe28a"></stop>
    <stop offset="50%" stop-color="#f4c34a"></stop>
    <stop offset="100%" stop-color="#c89320"></stop>
  </linearGradient>
  <linearGradient id="goldDark" x1="0" y1="0" x2="0" y2="1">
    <stop offset="0%" stop-color="#c89320"></stop>
    <stop offset="100%" stop-color="#8a5e10"></stop>
  </linearGradient>
  <radialGradient id="bgVignette" cx="50%" cy="50%" r="70%">
    <stop offset="0%" stop-color="#1a1820"></stop>
    <stop offset="100%" stop-color="#0f0d12"></stop>
  </radialGradient>
</defs>

<rect width="750" height="1050" fill="url(#bgVignette)"></rect>
<rect x="20" y="20" width="710" height="1010" rx="46" ry="46" fill="#1a1820" stroke="#f4c34a" stroke-width="2" opacity="0.4"></rect>

<g font-family="Georgia, &#39;Times New Roman&#39;, serif" font-weight="700" fill="#f4c34a">
  <text x="100" y="180" font-size="124" text-anchor="middle">J</text>
  <g transform="translate(100 250)"><g transform="rotate(0) scale(0.55)"><path d="M 0 -55 L 22 -42 L 22 -18 L 0 -10 L -22 -18 L -22 -42 Z" fill="url(#goldGrad)"></path><path d="M -55 8 L -32 -8 L -10 -2 L -10 22 L -32 32 L -55 24 Z" fill="url(#goldGrad)"></path><path d="M 55 8 L 32 -8 L 10 -2 L 10 22 L 32 32 L 55 24 Z" fill="url(#goldDark)"></path><path d="M 0 -55 L -22 -42 L -22 -18 L 0 -10 Z" fill="url(#goldDark)"></path><path d="M -10 22 L -10 -2 L -32 -8 L -55 8 Z" fill="url(#goldDark)"></path><path d="M -8 22 L -14 50 L 14 50 L 8 22 Z" fill="url(#goldGrad)"></path></g></g>
</g><g transform="rotate(180 375 525)">
<g font-family="Georgia, &#39;Times New Roman&#39;, serif" font-weight="700" fill="#f4c34a">
  <text x="100" y="180" font-size="124" text-anchor="middle">J</text>
  <g transform="translate(100 250)"><g transform="rotate(0) scale(0.55)"><path d="M 0 -55 L 22 -42 L 22 -18 L 0 -10 L -22 -18 L -22 -42 Z" fill="url(#goldGrad)"></path><path d="M -55 8 L -32 -8 L -10 -2 L -10 22 L -32 32 L -55 24 Z" fill="url(#goldGrad)"></path><path d="M 55 8 L 32 -8 L 10 -2 L 10 22 L 32 32 L 55 24 Z" fill="url(#goldDark)"></path><path d="M 0 -55 L -22 -42 L -22 -18 L 0 -10 Z" fill="url(#goldDark)"></path><path d="M -10 22 L -10 -2 L -32 -8 L -55 8 Z" fill="url(#goldDark)"></path><path d="M -8 22 L -14 50 L 14 50 L 8 22 Z" fill="url(#goldGrad)"></path></g></g>
</g></g>
<g transform="translate(375 525) scale(2.2)">
<g>
  
  <path d="M -90 -50 L 90 -50 L 70 70 L -70 70 Z" fill="url(#goldGrad)"></path>
  <path d="M -90 -50 L -70 70 L -50 70 L -65 -50 Z" fill="url(#goldDark)"></path>
  <path d="M 90 -50 L 70 70 L 50 70 L 65 -50 Z" fill="url(#goldDark)"></path>
  
  <rect x="-92" y="-60" width="184" height="22" fill="url(#goldGradFlip)"></rect>
  <rect x="-92" y="-60" width="184" height="6" fill="#ffe28a"></rect>
  
  <g transform="translate(0 -10)">
    <circle r="14" fill="#0f0d12"></circle>
    <circle r="10" fill="url(#goldGrad)"></circle>
  </g>
</g></g>
</svg>