<svg xmlns="http://www.w3.org/2000/svg" viewBox="0 0 750 1050" width="750" height="1050">
<defs>
<linearGradient id="goldGrad" x1="0" y1="0" x2="0" y2="1">
  <stop offset="0%" stop-color="#ffe893"></stop>
  <stop offset="50%" stop-color="#f4cc4e"></stop>
  <stop offset="100%" stop-color="#cf9a22"></stop>
</linearGradient>
<linearGradient id="goldDark" x1="0" y1="0" x2="0" y2="1">
  <stop offset="0%" stop-color="#cf9a22"></stop>
  <stop offset="100%" stop-color="#7a5810"></stop>
</linearGradient>
<radialGradient id="bgVignette" cx="50%" cy="50%" r="70%">
  <stop offset="0%" stop-color="#1a1820"></stop>
  <stop offset="100%" stop-color="#0a080d"></stop>
</radialGradient>
<symbol id="royal-half-K" viewBox="-220 -340 440 360">
  
    
    <path d="M -85 -240 Q -110 -180 -105 -120 Q -100 -70 -80 -50 L -55 -50 Q -62 -90 -62 -160 Q -62 -210 -85 -240 Z" fill="url(#goldGrad)" stroke="#7a5810" stroke-width="2"></path>
    <path d="M 85 -240 Q 110 -180 105 -120 Q 100 -70 80 -50 L 55 -50 Q 62 -90 62 -160 Q 62 -210 85 -240 Z" fill="url(#goldGrad)" stroke="#7a5810" stroke-width="2"></path>
  
    
    <path d="M -55 -240 Q -65 -180 -60 -130 Q -52 -90 -36 -70 Q -18 -55 0 -55 Q 18 -55 36 -70 Q 52 -90 60 -130 Q 65 -180 55 -240 Z" fill="#1a1820" stroke="url(#goldGrad)" stroke-width="2.5"></path>
    
    <ellipse cx="-28" cy="-160" rx="5" ry="3" fill="url(#goldGrad)"></ellipse>
    <ellipse cx="28" cy="-160" rx="5" ry="3" fill="url(#goldGrad)"></ellipse>
    
    <path d="M -38 -178 L -18 -174" stroke="url(#goldGrad)" stroke-width="2.5" stroke-linecap="round"></path>
    <path d="M 38 -178 L 18 -174" stroke="url(#goldGrad)" stroke-width="2.5" stroke-linecap="round"></path>
    
    <path d="M 0 -150 Q -3 -120 -5 -110 Q 0 -106 5 -110 Q 3 -120 0 -150" fill="none" stroke="url(#goldGrad)" stroke-width="1.5"></path>
    
    <path d="M -10 -88 Q 0 -82 10 -88" stroke="url(#goldGrad)" stroke-width="2" fill="none" stroke-linecap="round"></path>
    
    <path d="M -45 -90 Q -55 -50 -45 -10 Q -25 10 0 12 Q 25 10 45 -10 Q 55 -50 45 -90 Q 25 -75 0 -75 Q -25 -75 -45 -90 Z" fill="url(#goldDark)" stroke="url(#goldGrad)" stroke-width="2"></path>
    
    <path d="M -28 -88 Q -16 -94 -4 -88 Q 0 -84 4 -88 Q 16 -94 28 -88 Q 14 -82 0 -82 Q -14 -82 -28 -88 Z" fill="url(#goldGrad)" stroke="#7a5810" stroke-width="1"></path>
  
  
    <path d="M -80 -290 L -80 -250 L -55 -270 L -30 -245 L 0 -280 L 30 -245 L 55 -270 L 80 -250 L 80 -290 L 60 -310 L -60 -310 Z" fill="url(#goldGrad)" stroke="#7a5810" stroke-width="2.5"></path>
    <rect x="-3" y="-330" width="6" height="22" fill="url(#goldGrad)" stroke="#7a5810" stroke-width="1.5"></rect>
    <rect x="-9" y="-322" width="18" height="6" fill="url(#goldGrad)" stroke="#7a5810" stroke-width="1.5"></rect>
    <circle cx="0" cy="-260" r="5" fill="#15131a" stroke="#7a5810" stroke-width="1.5"></circle>
  
    
    <path d="M -200 18 Q -150 -10 -100 -10 Q -50 -2 -20 0 Q 0 2 20 0 Q 50 -2 100 -10 Q 150 -10 200 18 L 200 22 L -200 22 Z" fill="#15131a" stroke="url(#goldGrad)" stroke-width="2.5"></path>
    
    <path d="M -180 14 Q -120 -2 -50 4 Q 0 8 50 4 Q 120 -2 180 14" fill="none" stroke="url(#goldGrad)" stroke-width="2"></path>
    
    <g transform="translate(0 12)">
      <circle r="10" fill="url(#goldGrad)" stroke="#7a5810" stroke-width="2"></circle>
      <g transform="scale(0.18)"><path d="M -22 10 C -44 10 -54 -8 -44 -24 C -32 -42 -8 -34 -6 -18 C -14 -28 -22 -36 -22 -46 C -22 -58 -10 -64 0 -64 C 10 -64 22 -58 22 -46 C 22 -36 14 -28 6 -18 C 8 -34 32 -42 44 -24 C 54 -8 44 10 22 10 C 12 10 4 4 0 -2 L 10 36 L -10 36 L 0 -2 C -4 4 -12 10 -22 10 Z" fill="#15131a"></path></g>
    </g>
    
    <g fill="url(#goldGrad)" stroke="#7a5810" stroke-width="1.5">
      <circle cx="-130" cy="6" r="5"></circle><circle cx="130" cy="6" r="5"></circle>
      <circle cx="-90" cy="0" r="4"></circle><circle cx="90" cy="0" r="4"></circle>
    </g>
  
</symbol></defs>

<rect width="750" height="1050" fill="url(#bgVignette)"></rect>
<rect x="20" y="20" width="710" height="1010" rx="46" ry="46" fill="#15131a" stroke="url(#goldGrad)" stroke-width="3"></rect>
<rect x="38" y="38" width="674" height="974" rx="34" ry="34" fill="none" stroke="url(#goldDark)" stroke-width="1.5"></rect>

<g font-family="Georgia, &#39;Times New Roman&#39;, serif" font-weight="700" fill="url(#goldGrad)">
  <text x="105" y="180" font-size="124" text-anchor="middle" stroke="#7a5810" stroke-width="1.5">K</text>
  <g transform="translate(105 270) rotate(0) scale(0.85)">
    <path d="M -22 10 C -44 10 -54 -8 -44 -24 C -32 -42 -8 -34 -6 -18 C -14 -28 -22 -36 -22 -46 C -22 -58 -10 -64 0 -64 C 10 -64 22 -58 22 -46 C 22 -36 14 -28 6 -18 C 8 -34 32 -42 44 -24 C 54 -8 44 10 22 10 C 12 10 4 4 0 -2 L 10 36 L -10 36 L 0 -2 C -4 4 -12 10 -22 10 Z" fill="url(#goldGrad)" stroke="#7a5810" stroke-width="2"></path>
    <path d="M -22 10 C -44 10 -54 -8 -44 -24 C -32 -42 -8 -34 -6 -18 C -14 -28 -22 -36 -22 -46 C -22 -58 -10 -64 0 -64 C 10 -64 22 -58 22 -46 C 22 -36 14 -28 6 -18 C 8 -34 32 -42 44 -24 C 54 -8 44 10 22 10 C 12 10 4 4 0 -2 L 10 36 L -10 36 L 0 -2 C -4 4 -12 10 -22 10 Z" fill="none" stroke="#fff4c8" stroke-width="0.8" opacity="0.4"></path>
  </g>
</g>
<g transform="rotate(180 375 525)">
<g font-family="Georgia, &#39;Times New Roman&#39;, serif" font-weight="700" fill="url(#goldGrad)">
  <text x="105" y="180" font-size="124" text-anchor="middle" stroke="#7a5810" stroke-width="1.5">K</text>
  <g transform="translate(105 270) rotate(0) scale(0.85)">
    <path d="M -22 10 C -44 10 -54 -8 -44 -24 C -32 -42 -8 -34 -6 -18 C -14 -28 -22 -36 -22 -46 C -22 -58 -10 -64 0 -64 C 10 -64 22 -58 22 -46 C 22 -36 14 -28 6 -18 C 8 -34 32 -42 44 -24 C 54 -8 44 10 22 10 C 12 10 4 4 0 -2 L 10 36 L -10 36 L 0 -2 C -4 4 -12 10 -22 10 Z" fill="url(#goldGrad)" stroke="#7a5810" stroke-width="2"></path>
    <path d="M -22 10 C -44 10 -54 -8 -44 -24 C -32 -42 -8 -34 -6 -18 C -14 -28 -22 -36 -22 -46 C -22 -58 -10 -64 0 -64 C 10 -64 22 -58 22 -46 C 22 -36 14 -28 6 -18 C 8 -34 32 -42 44 -24 C 54 -8 44 10 22 10 C 12 10 4 4 0 -2 L 10 36 L -10 36 L 0 -2 C -4 4 -12 10 -22 10 Z" fill="none" stroke="#fff4c8" stroke-width="0.8" opacity="0.4"></path>
  </g>
</g></g>
<rect x="195" y="195" width="360" height="660" rx="16" ry="16" fill="#15131a" stroke="url(#goldDark)" stroke-width="2"></rect>

<g fill="url(#goldGrad)" stroke="#7a5810" stroke-width="1.5">
  <circle cx="195" cy="195" r="6"></circle><circle cx="555" cy="195" r="6"></circle>
  <circle cx="195" cy="855" r="6"></circle><circle cx="555" cy="855" r="6"></circle>
</g>

<g transform="translate(220 220) rotate(0) scale(0.4)">
    <path d="M -22 10 C -44 10 -54 -8 -44 -24 C -32 -42 -8 -34 -6 -18 C -14 -28 -22 -36 -22 -46 C -22 -58 -10 -64 0 -64 C 10 -64 22 -58 22 -46 C 22 -36 14 -28 6 -18 C 8 -34 32 -42 44 -24 C 54 -8 44 10 22 10 C 12 10 4 4 0 -2 L 10 36 L -10 36 L 0 -2 C -4 4 -12 10 -22 10 Z" fill="url(#goldGrad)" stroke="#7a5810" stroke-width="2"></path>
    <path d="M -22 10 C -44 10 -54 -8 -44 -24 C -32 -42 -8 -34 -6 -18 C -14 -28 -22 -36 -22 -46 C -22 -58 -10 -64 0 -64 C 10 -64 22 -58 22 -46 C 22 -36 14 -28 6 -18 C 8 -34 32 -42 44 -24 C 54 -8 44 10 22 10 C 12 10 4 4 0 -2 L 10 36 L -10 36 L 0 -2 C -4 4 -12 10 -22 10 Z" fill="none" stroke="#fff4c8" stroke-width="0.8" opacity="0.4"></path>
  </g>
<g transform="translate(530 220) rotate(0) scale(0.4)">
    <path d="M -22 10 C -44 10 -54 -8 -44 -24 C -32 -42 -8 -34 -6 -18 C -14 -28 -22 -36 -22 -46 C -22 -58 -10 -64 0 -64 C 10 -64 22 -58 22 -46 C 22 -36 14 -28 6 -18 C 8 -34 32 -42 44 -24 C 54 -8 44 10 22 10 C 12 10 4 4 0 -2 L 10 36 L -10 36 L 0 -2 C -4 4 -12 10 -22 10 Z" fill="url(#goldGrad)" stroke="#7a5810" stroke-width="2"></path>
    <path d="M -22 10 C -44 10 -54 -8 -44 -24 C -32 -42 -8 -34 -6 -18 C -14 -28 -22 -36 -22 -46 C -22 -58 -10 -64 0 -64 C 10 -64 22 -58 22 -46 C 22 -36 14 -28 6 -18 C 8 -34 32 -42 44 -24 C 54 -8 44 10 22 10 C 12 10 4 4 0 -2 L 10 36 L -10 36 L 0 -2 C -4 4 -12 10 -22 10 Z" fill="none" stroke="#fff4c8" stroke-width="0.8" opacity="0.4"></path>
  </g>
<g transform="translate(220 830) rotate(180) scale(0.4)">
    <path d="M -22 10 C -44 10 -54 -8 -44 -24 C -32 -42 -8 -34 -6 -18 C -14 -28 -22 -36 -22 -46 C -22 -58 -10 -64 0 -64 C 10 -64 22 -58 22 -46 C 22 -36 14 -28 6 -18 C 8 -34 32 -42 44 -24 C 54 -8 44 10 22 10 C 12 10 4 4 0 -2 L 10 36 L -10 36 L 0 -2 C -4 4 -12 10 -22 10 Z" fill="url(#goldGrad)" stroke="#7a5810" stroke-width="2"></path>
    <path d="M -22 10 C -44 10 -54 -8 -44 -24 C -32 -42 -8 -34 -6 -18 C -14 -28 -22 -36 -22 -46 C -22 -58 -10 -64 0 -64 C 10 -64 22 -58 22 -46 C 22 -36 14 -28 6 -18 C 8 -34 32 -42 44 -24 C 54 -8 44 10 22 10 C 12 10 4 4 0 -2 L 10 36 L -10 36 L 0 -2 C -4 4 -12 10 -22 10 Z" fill="none" stroke="#fff4c8" stroke-width="0.8" opacity="0.4"></path>
  </g>
<g transform="translate(530 830) rotate(180) scale(0.4)">
    <path d="M -22 10 C -44 10 -54 -8 -44 -24 C -32 -42 -8 -34 -6 -18 C -14 -28 -22 -36 -22 -46 C -22 -58 -10 -64 0 -64 C 10 -64 22 -58 22 -46 C 22 -36 14 -28 6 -18 C 8 -34 32 -42 44 -24 C 54 -8 44 10 22 10 C 12 10 4 4 0 -2 L 10 36 L -10 36 L 0 -2 C -4 4 -12 10 -22 10 Z" fill="url(#goldGrad)" stroke="#7a5810" stroke-width="2"></path>
    <path d="M -22 10 C -44 10 -54 -8 -44 -24 C -32 -42 -8 -34 -6 -18 C -14 -28 -22 -36 -22 -46 C -22 -58 -10 -64 0 -64 C 10 -64 22 -58 22 -46 C 22 -36 14 -28 6 -18 C 8 -34 32 -42 44 -24 C 54 -8 44 10 22 10 C 12 10 4 4 0 -2 L 10 36 L -10 36 L 0 -2 C -4 4 -12 10 -22 10 Z" fill="none" stroke="#fff4c8" stroke-width="0.8" opacity="0.4"></path>
  </g>

<g transform="translate(375 525)">
  <use href="#royal-half-K" x="-220" y="-340" width="440" height="360"></use>
</g>
<g transform="translate(375 525) rotate(180)">
  <use href="#royal-half-K" x="-220" y="-340" width="440" height="360"></use>
</g>

<line x1="220" y1="525" x2="530" y2="525" stroke="url(#goldGrad)" stroke-width="1.2" stroke-dasharray="4 4"></line>

<g transform="translate(375 525)">
  <circle r="22" fill="#15131a" stroke="url(#goldGrad)" stroke-width="2"></circle>
  <g transform="scale(0.32)"><path d="M -22 10 C -44 10 -54 -8 -44 -24 C -32 -42 -8 -34 -6 -18 C -14 -28 -22 -36 -22 -46 C -22 -58 -10 -64 0 -64 C 10 -64 22 -58 22 -46 C 22 -36 14 -28 6 -18 C 8 -34 32 -42 44 -24 C 54 -8 44 10 22 10 C 12 10 4 4 0 -2 L 10 36 L -10 36 L 0 -2 C -4 4 -12 10 -22 10 Z" fill="url(#goldGrad)" stroke="#7a5810" stroke-width="2"></path></g>
</g>
</svg>