<svg xmlns="http://www.w3.org/2000/svg" viewBox="0 0 750 1050" width="750" height="1050">

<rect width="750" height="1050" fill="#f1e7d0"></rect>
<rect x="20" y="20" width="710" height="1010" rx="40" ry="40" fill="none" stroke="#1a1612" stroke-width="6"></rect>
<rect x="35" y="35" width="680" height="980" rx="30" ry="30" fill="none" stroke="#1a1612" stroke-width="2"></rect>

<g font-family="Georgia, &#39;Times New Roman&#39;, serif" font-weight="700" fill="#1a1612">
  <text x="100" y="180" font-size="124" text-anchor="middle">10</text>
  <g transform="translate(100 250) scale(0.72)"><path d="M 0 -50 C -20 -20 -50 0 -50 25 C -50 45 -30 50 -15 45 C -8 42 -3 38 -2 30 L -10 50 L 10 50 L 2 30 C 3 38 8 42 15 45 C 30 50 50 45 50 25 C 50 0 20 -20 0 -50 Z" fill="#1a1612"></path></g>
</g>
<g transform="rotate(180 375 525)">
<g font-family="Georgia, &#39;Times New Roman&#39;, serif" font-weight="700" fill="#1a1612">
  <text x="100" y="180" font-size="124" text-anchor="middle">10</text>
  <g transform="translate(100 250) scale(0.72)"><path d="M 0 -50 C -20 -20 -50 0 -50 25 C -50 45 -30 50 -15 45 C -8 42 -3 38 -2 30 L -10 50 L 10 50 L 2 30 C 3 38 8 42 15 45 C 30 50 50 45 50 25 C 50 0 20 -20 0 -50 Z" fill="#1a1612"></path></g>
</g></g>
<g transform="translate(270 290) rotate(0) scale(0.65)"><path d="M 0 -50 C -20 -20 -50 0 -50 25 C -50 45 -30 50 -15 45 C -8 42 -3 38 -2 30 L -10 50 L 10 50 L 2 30 C 3 38 8 42 15 45 C 30 50 50 45 50 25 C 50 0 20 -20 0 -50 Z" fill="#1a1612"></path></g><g transform="translate(480 290) rotate(0) scale(0.65)"><path d="M 0 -50 C -20 -20 -50 0 -50 25 C -50 45 -30 50 -15 45 C -8 42 -3 38 -2 30 L -10 50 L 10 50 L 2 30 C 3 38 8 42 15 45 C 30 50 50 45 50 25 C 50 0 20 -20 0 -50 Z" fill="#1a1612"></path></g><g transform="translate(375 375) rotate(0) scale(0.65)"><path d="M 0 -50 C -20 -20 -50 0 -50 25 C -50 45 -30 50 -15 45 C -8 42 -3 38 -2 30 L -10 50 L 10 50 L 2 30 C 3 38 8 42 15 45 C 30 50 50 45 50 25 C 50 0 20 -20 0 -50 Z" fill="#1a1612"></path></g><g transform="translate(270 440) rotate(0) scale(0.65)"><path d="M 0 -50 C -20 -20 -50 0 -50 25 C -50 45 -30 50 -15 45 C -8 42 -3 38 -2 30 L -10 50 L 10 50 L 2 30 C 3 38 8 42 15 45 C 30 50 50 45 50 25 C 50 0 20 -20 0 -50 Z" fill="#1a1612"></path></g><g transform="translate(480 440) rotate(0) scale(0.65)"><path d="M 0 -50 C -20 -20 -50 0 -50 25 C -50 45 -30 50 -15 45 C -8 42 -3 38 -2 30 L -10 50 L 10 50 L 2 30 C 3 38 8 42 15 45 C 30 50 50 45 50 25 C 50 0 20 -20 0 -50 Z" fill="#1a1612"></path></g><g transform="translate(270 610) rotate(180) scale(0.65)"><path d="M 0 -50 C -20 -20 -50 0 -50 25 C -50 45 -30 50 -15 45 C -8 42 -3 38 -2 30 L -10 50 L 10 50 L 2 30 C 3 38 8 42 15 45 C 30 50 50 45 50 25 C 50 0 20 -20 0 -50 Z" fill="#1a1612"></path></g><g transform="translate(480 610) rotate(180) scale(0.65)"><path d="M 0 -50 C -20 -20 -50 0 -50 25 C -50 45 -30 50 -15 45 C -8 42 -3 38 -2 30 L -10 50 L 10 50 L 2 30 C 3 38 8 42 15 45 C 30 50 50 45 50 25 C 50 0 20 -20 0 -50 Z" fill="#1a1612"></path></g><g transform="translate(375 675) rotate(180) scale(0.65)"><path d="M 0 -50 C -20 -20 -50 0 -50 25 C -50 45 -30 50 -15 45 C -8 42 -3 38 -2 30 L -10 50 L 10 50 L 2 30 C 3 38 8 42 15 45 C 30 50 50 45 50 25 C 50 0 20 -20 0 -50 Z" fill="#1a1612"></path></g><g transform="translate(270 760) rotate(180) scale(0.65)"><path d="M 0 -50 C -20 -20 -50 0 -50 25 C -50 45 -30 50 -15 45 C -8 42 -3 38 -2 30 L -10 50 L 10 50 L 2 30 C 3 38 8 42 15 45 C 30 50 50 45 50 25 C 50 0 20 -20 0 -50 Z" fill="#1a1612"></path></g><g transform="translate(480 760) rotate(180) scale(0.65)"><path d="M 0 -50 C -20 -20 -50 0 -50 25 C -50 45 -30 50 -15 45 C -8 42 -3 38 -2 30 L -10 50 L 10 50 L 2 30 C 3 38 8 42 15 45 C 30 50 50 45 50 25 C 50 0 20 -20 0 -50 Z" fill="#1a1612"></path></g>
</svg>