<svg xmlns="http://www.w3.org/2000/svg" viewBox="0 0 750 1050" width="750" height="1050">

<rect width="750" height="1050" fill="#f1e7d0"></rect>
<rect x="20" y="20" width="710" height="1010" rx="40" ry="40" fill="none" stroke="#1a1612" stroke-width="6"></rect>
<rect x="35" y="35" width="680" height="980" rx="30" ry="30" fill="none" stroke="#1a1612" stroke-width="2"></rect>

<g font-family="Georgia, &#39;Times New Roman&#39;, serif" font-weight="700" fill="#1a1612">
  <text x="100" y="180" font-size="124" text-anchor="middle">8</text>
  <g transform="translate(100 250) scale(0.72)"><path d="M -22 8 C -42 8 -50 -8 -42 -22 C -32 -38 -10 -32 -8 -18 C -16 -28 -22 -36 -22 -44 C -22 -56 -10 -60 0 -60 C 10 -60 22 -56 22 -44 C 22 -36 16 -28 8 -18 C 10 -32 32 -38 42 -22 C 50 -8 42 8 22 8 C 12 8 4 4 0 -2 L 8 30 L -8 30 L 0 -2 C -4 4 -12 8 -22 8 Z" fill="#1a1612"></path></g>
</g>
<g transform="rotate(180 375 525)">
<g font-family="Georgia, &#39;Times New Roman&#39;, serif" font-weight="700" fill="#1a1612">
  <text x="100" y="180" font-size="124" text-anchor="middle">8</text>
  <g transform="translate(100 250) scale(0.72)"><path d="M -22 8 C -42 8 -50 -8 -42 -22 C -32 -38 -10 -32 -8 -18 C -16 -28 -22 -36 -22 -44 C -22 -56 -10 -60 0 -60 C 10 -60 22 -56 22 -44 C 22 -36 16 -28 8 -18 C 10 -32 32 -38 42 -22 C 50 -8 42 8 22 8 C 12 8 4 4 0 -2 L 8 30 L -8 30 L 0 -2 C -4 4 -12 8 -22 8 Z" fill="#1a1612"></path></g>
</g></g>
<g transform="translate(270 290) rotate(0) scale(0.65)"><path d="M -22 8 C -42 8 -50 -8 -42 -22 C -32 -38 -10 -32 -8 -18 C -16 -28 -22 -36 -22 -44 C -22 -56 -10 -60 0 -60 C 10 -60 22 -56 22 -44 C 22 -36 16 -28 8 -18 C 10 -32 32 -38 42 -22 C 50 -8 42 8 22 8 C 12 8 4 4 0 -2 L 8 30 L -8 30 L 0 -2 C -4 4 -12 8 -22 8 Z" fill="#1a1612"></path></g><g transform="translate(480 290) rotate(0) scale(0.65)"><path d="M -22 8 C -42 8 -50 -8 -42 -22 C -32 -38 -10 -32 -8 -18 C -16 -28 -22 -36 -22 -44 C -22 -56 -10 -60 0 -60 C 10 -60 22 -56 22 -44 C 22 -36 16 -28 8 -18 C 10 -32 32 -38 42 -22 C 50 -8 42 8 22 8 C 12 8 4 4 0 -2 L 8 30 L -8 30 L 0 -2 C -4 4 -12 8 -22 8 Z" fill="#1a1612"></path></g><g transform="translate(375 400) rotate(0) scale(0.65)"><path d="M -22 8 C -42 8 -50 -8 -42 -22 C -32 -38 -10 -32 -8 -18 C -16 -28 -22 -36 -22 -44 C -22 -56 -10 -60 0 -60 C 10 -60 22 -56 22 -44 C 22 -36 16 -28 8 -18 C 10 -32 32 -38 42 -22 C 50 -8 42 8 22 8 C 12 8 4 4 0 -2 L 8 30 L -8 30 L 0 -2 C -4 4 -12 8 -22 8 Z" fill="#1a1612"></path></g><g transform="translate(270 510) rotate(0) scale(0.65)"><path d="M -22 8 C -42 8 -50 -8 -42 -22 C -32 -38 -10 -32 -8 -18 C -16 -28 -22 -36 -22 -44 C -22 -56 -10 -60 0 -60 C 10 -60 22 -56 22 -44 C 22 -36 16 -28 8 -18 C 10 -32 32 -38 42 -22 C 50 -8 42 8 22 8 C 12 8 4 4 0 -2 L 8 30 L -8 30 L 0 -2 C -4 4 -12 8 -22 8 Z" fill="#1a1612"></path></g><g transform="translate(480 510) rotate(0) scale(0.65)"><path d="M -22 8 C -42 8 -50 -8 -42 -22 C -32 -38 -10 -32 -8 -18 C -16 -28 -22 -36 -22 -44 C -22 -56 -10 -60 0 -60 C 10 -60 22 -56 22 -44 C 22 -36 16 -28 8 -18 C 10 -32 32 -38 42 -22 C 50 -8 42 8 22 8 C 12 8 4 4 0 -2 L 8 30 L -8 30 L 0 -2 C -4 4 -12 8 -22 8 Z" fill="#1a1612"></path></g><g transform="translate(375 650) rotate(180) scale(0.65)"><path d="M -22 8 C -42 8 -50 -8 -42 -22 C -32 -38 -10 -32 -8 -18 C -16 -28 -22 -36 -22 -44 C -22 -56 -10 -60 0 -60 C 10 -60 22 -56 22 -44 C 22 -36 16 -28 8 -18 C 10 -32 32 -38 42 -22 C 50 -8 42 8 22 8 C 12 8 4 4 0 -2 L 8 30 L -8 30 L 0 -2 C -4 4 -12 8 -22 8 Z" fill="#1a1612"></path></g><g transform="translate(270 760) rotate(180) scale(0.65)"><path d="M -22 8 C -42 8 -50 -8 -42 -22 C -32 -38 -10 -32 -8 -18 C -16 -28 -22 -36 -22 -44 C -22 -56 -10 -60 0 -60 C 10 -60 22 -56 22 -44 C 22 -36 16 -28 8 -18 C 10 -32 32 -38 42 -22 C 50 -8 42 8 22 8 C 12 8 4 4 0 -2 L 8 30 L -8 30 L 0 -2 C -4 4 -12 8 -22 8 Z" fill="#1a1612"></path></g><g transform="translate(480 760) rotate(180) scale(0.65)"><path d="M -22 8 C -42 8 -50 -8 -42 -22 C -32 -38 -10 -32 -8 -18 C -16 -28 -22 -36 -22 -44 C -22 -56 -10 -60 0 -60 C 10 -60 22 -56 22 -44 C 22 -36 16 -28 8 -18 C 10 -32 32 -38 42 -22 C 50 -8 42 8 22 8 C 12 8 4 4 0 -2 L 8 30 L -8 30 L 0 -2 C -4 4 -12 8 -22 8 Z" fill="#1a1612"></path></g>
</svg>