<svg xmlns="http://www.w3.org/2000/svg" viewBox="0 0 750 1050" width="750" height="1050">
<defs>
<symbol id="leaf-w" viewBox="-32 -16 64 32">
  <path d="M -30 0 Q -16 -16 0 -14 Q 16 -12 30 0 Q 16 14 0 12 Q -14 10 -30 0 Z" fill="#2d4a32" stroke="#1a1612" stroke-width="2.5"></path>
  <path d="M -28 0 Q -16 -14 0 -12 Q 14 -10 6 -2 Q -8 -2 -22 2 Q -28 2 -28 0 Z" fill="#3d5e42"></path>
  <path d="M -27 0 Q 0 -2 27 0" stroke="#1a1612" stroke-width="1.6" fill="none"></path>
  <g stroke="#1a1612" stroke-width="1" fill="none">
    <path d="M -18 -1 L -12 -9"></path><path d="M -8 -2 L -2 -10"></path><path d="M 4 -2 L 10 -10"></path>
    <path d="M 14 -1 L 18 -8"></path><path d="M -18 1 L -12 8"></path><path d="M -8 2 L -2 10"></path>
    <path d="M 4 2 L 10 9"></path><path d="M 14 1 L 18 7"></path>
  </g>
</symbol>
<symbol id="rose-r" viewBox="-60 -60 120 120">
  <path d="M -55 -8 Q -54 -42 -28 -52 Q -8 -56 12 -54 Q 38 -50 52 -28 Q 58 -8 54 14 Q 48 38 28 50 Q 6 56 -16 50 Q -42 42 -52 22 Q -58 6 -55 -8 Z" fill="#5a1818" stroke="#1a1612" stroke-width="3"></path>
  <path d="M -45 -10 Q -42 -38 -22 -44 Q -2 -48 16 -42 Q 38 -34 44 -10 Q 46 12 32 32 Q 16 44 -4 42 Q -28 38 -42 22 Q -50 6 -45 -10 Z" fill="#7a1f1f" stroke="#1a1612" stroke-width="2"></path>
  <path d="M -38 -12 Q -36 -32 -18 -38 Q -2 -42 14 -36 Q 30 -28 36 -10 Q 38 8 26 22 Q 10 32 -8 30 Q -28 26 -38 12 Q -42 -2 -38 -12 Z" fill="#8a2a26" stroke="#1a1612" stroke-width="1.8"></path>
  <path d="M -28 -8 Q -26 -24 -10 -28 Q 6 -32 18 -24 Q 28 -16 28 -2 Q 28 14 14 22 Q -2 26 -16 20 Q -30 12 -28 -8 Z" fill="#a83a36" stroke="#1a1612" stroke-width="1.6"></path>
  <path d="M -16 -4 Q -14 -16 -2 -18 Q 10 -20 16 -10 Q 18 2 10 10 Q -2 14 -12 8 Q -18 2 -16 -4 Z" fill="#c84a44" stroke="#1a1612" stroke-width="1.4"></path>
  <path d="M -8 -2 Q -6 -10 0 -12 Q 6 -12 8 -6 Q 10 2 4 6 Q -2 8 -7 4 Z" fill="#e8645c" stroke="#1a1612" stroke-width="1.2"></path>
  <path d="M -3 0 Q -2 -4 0 -5 Q 3 -4 4 0 Q 3 3 0 3 Q -2 3 -3 0 Z" fill="#1a1612"></path>
</symbol>
<symbol id="rose-y" viewBox="-60 -60 120 120">
  <path d="M -55 -8 Q -54 -42 -28 -52 Q -8 -56 12 -54 Q 38 -50 52 -28 Q 58 -8 54 14 Q 48 38 28 50 Q 6 56 -16 50 Q -42 42 -52 22 Q -58 6 -55 -8 Z" fill="#7a5520" stroke="#1a1612" stroke-width="3"></path>
  <path d="M -45 -10 Q -42 -38 -22 -44 Q -2 -48 16 -42 Q 38 -34 44 -10 Q 46 12 32 32 Q 16 44 -4 42 Q -28 38 -42 22 Q -50 6 -45 -10 Z" fill="#a8772a" stroke="#1a1612" stroke-width="2"></path>
  <path d="M -38 -12 Q -36 -32 -18 -38 Q -2 -42 14 -36 Q 30 -28 36 -10 Q 38 8 26 22 Q 10 32 -8 30 Q -28 26 -38 12 Q -42 -2 -38 -12 Z" fill="#c89a3a" stroke="#1a1612" stroke-width="1.8"></path>
  <path d="M -28 -8 Q -26 -24 -10 -28 Q 6 -32 18 -24 Q 28 -16 28 -2 Q 28 14 14 22 Q -2 26 -16 20 Q -30 12 -28 -8 Z" fill="#e0b656" stroke="#1a1612" stroke-width="1.6"></path>
  <path d="M -16 -4 Q -14 -16 -2 -18 Q 10 -20 16 -10 Q 18 2 10 10 Q -2 14 -12 8 Q -18 2 -16 -4 Z" fill="#f1cc6e" stroke="#1a1612" stroke-width="1.4"></path>
  <path d="M -8 -2 Q -6 -10 0 -12 Q 6 -12 8 -6 Q 10 2 4 6 Q -2 8 -7 4 Z" fill="#f9e09e" stroke="#1a1612" stroke-width="1.2"></path>
  <path d="M -3 0 Q -2 -4 0 -5 Q 3 -4 4 0 Q 3 3 0 3 Q -2 3 -3 0 Z" fill="#5a3818"></path>
</symbol></defs>

<rect width="750" height="1050" fill="#f1e7d0"></rect>
<rect x="20" y="20" width="710" height="1010" rx="40" ry="40" fill="none" stroke="#1a1612" stroke-width="6"></rect>
<rect x="35" y="35" width="680" height="980" rx="30" ry="30" fill="none" stroke="#1a1612" stroke-width="2"></rect>

<g font-family="Georgia, &#39;Times New Roman&#39;, serif" font-weight="700" fill="#1a1612">
  <text x="100" y="180" font-size="124" text-anchor="middle">A</text>
  <g transform="translate(100 250) scale(0.72)"><path d="M -22 8 C -42 8 -50 -8 -42 -22 C -32 -38 -10 -32 -8 -18 C -16 -28 -22 -36 -22 -44 C -22 -56 -10 -60 0 -60 C 10 -60 22 -56 22 -44 C 22 -36 16 -28 8 -18 C 10 -32 32 -38 42 -22 C 50 -8 42 8 22 8 C 12 8 4 4 0 -2 L 8 30 L -8 30 L 0 -2 C -4 4 -12 8 -22 8 Z" fill="#1a1612"></path></g>
</g>
<g transform="rotate(180 375 525)">
<g font-family="Georgia, &#39;Times New Roman&#39;, serif" font-weight="700" fill="#1a1612">
  <text x="100" y="180" font-size="124" text-anchor="middle">A</text>
  <g transform="translate(100 250) scale(0.72)"><path d="M -22 8 C -42 8 -50 -8 -42 -22 C -32 -38 -10 -32 -8 -18 C -16 -28 -22 -36 -22 -44 C -22 -56 -10 -60 0 -60 C 10 -60 22 -56 22 -44 C 22 -36 16 -28 8 -18 C 10 -32 32 -38 42 -22 C 50 -8 42 8 22 8 C 12 8 4 4 0 -2 L 8 30 L -8 30 L 0 -2 C -4 4 -12 8 -22 8 Z" fill="#1a1612"></path></g>
</g></g>

<g stroke="#1a1612" stroke-width="3" fill="none" stroke-linecap="round">
  <path d="M 130 320 Q 100 450 130 580 Q 160 720 130 830"></path>
  <path d="M 620 320 Q 650 450 620 580 Q 590 720 620 830"></path>
</g>
<use href="#leaf-w" x="100" y="400" width="60" height="30" transform="rotate(70 130 415)"></use>
<use href="#leaf-w" x="100" y="650" width="60" height="30" transform="rotate(110 130 665)"></use>
<use href="#leaf-w" x="595" y="400" width="60" height="30" transform="rotate(-70 625 415)"></use>
<use href="#leaf-w" x="595" y="650" width="60" height="30" transform="rotate(-110 625 665)"></use>
<use href="#rose-r" x="80" y="290" width="100" height="100"></use>
<use href="#rose-y" x="570" y="290" width="100" height="100"></use>
<use href="#rose-r" x="80" y="660" width="100" height="100"></use>
<use href="#rose-y" x="570" y="660" width="100" height="100"></use>


<g transform="translate(375 525)">
  <circle r="240" fill="none" stroke="#1a1612" stroke-width="3" stroke-dasharray="3 6"></circle>
  <circle r="220" fill="#f1e7d0" stroke="#1a1612" stroke-width="3"></circle>
  <g transform="scale(3.6)"><path d="M -22 8 C -42 8 -50 -8 -42 -22 C -32 -38 -10 -32 -8 -18 C -16 -28 -22 -36 -22 -44 C -22 -56 -10 -60 0 -60 C 10 -60 22 -56 22 -44 C 22 -36 16 -28 8 -18 C 10 -32 32 -38 42 -22 C 50 -8 42 8 22 8 C 12 8 4 4 0 -2 L 8 30 L -8 30 L 0 -2 C -4 4 -12 8 -22 8 Z" fill="#1a1612"></path></g>
  <g><circle r="42" fill="#c89a3a" stroke="#1a1612" stroke-width="3"></circle>
     <circle r="22" fill="#1a1612" stroke="#1a1612" stroke-width="2"></circle>
     <circle r="6" fill="#f1e7d0"></circle></g>
</g>


<g transform="translate(375 880)">
  <path d="M -180 -22 L 180 -22 L 200 0 L 180 22 L -180 22 L -200 0 Z" fill="#8a2a26" stroke="#1a1612" stroke-width="3"></path>
  <path d="M -180 -22 L -210 -12 L -210 32 L -180 22 Z" fill="#6a1818" stroke="#1a1612" stroke-width="3"></path>
  <path d="M 180 -22 L 210 -12 L 210 32 L 180 22 Z" fill="#6a1818" stroke="#1a1612" stroke-width="3"></path>
  <text y="8" text-anchor="middle" font-family="Georgia, serif" font-weight="700" font-size="26" fill="#f1e7d0" letter-spacing="6">ACE OF CLUBS</text>
</g>
</svg>