<svg xmlns="http://www.w3.org/2000/svg" viewBox="0 0 750 1050" width="750" height="1050">
<defs>
<symbol id="leaf-w" viewBox="-32 -16 64 32">
  <path d="M -30 0 Q -16 -16 0 -14 Q 16 -12 30 0 Q 16 14 0 12 Q -14 10 -30 0 Z" fill="#2d4a32" stroke="#1a1612" stroke-width="2.5"></path>
  <path d="M -28 0 Q -16 -14 0 -12 Q 14 -10 6 -2 Q -8 -2 -22 2 Q -28 2 -28 0 Z" fill="#3d5e42"></path>
  <path d="M -27 0 Q 0 -2 27 0" stroke="#1a1612" stroke-width="1.6" fill="none"></path>
  <g stroke="#1a1612" stroke-width="1" fill="none">
    <path d="M -18 -1 L -12 -9"></path><path d="M -8 -2 L -2 -10"></path><path d="M 4 -2 L 10 -10"></path>
    <path d="M 14 -1 L 18 -8"></path><path d="M -18 1 L -12 8"></path><path d="M -8 2 L -2 10"></path>
    <path d="M 4 2 L 10 9"></path><path d="M 14 1 L 18 7"></path>
  </g>
</symbol>
<symbol id="rose-r" viewBox="-60 -60 120 120">
  <path d="M -55 -8 Q -54 -42 -28 -52 Q -8 -56 12 -54 Q 38 -50 52 -28 Q 58 -8 54 14 Q 48 38 28 50 Q 6 56 -16 50 Q -42 42 -52 22 Q -58 6 -55 -8 Z" fill="#5a1818" stroke="#1a1612" stroke-width="3"></path>
  <path d="M -45 -10 Q -42 -38 -22 -44 Q -2 -48 16 -42 Q 38 -34 44 -10 Q 46 12 32 32 Q 16 44 -4 42 Q -28 38 -42 22 Q -50 6 -45 -10 Z" fill="#7a1f1f" stroke="#1a1612" stroke-width="2"></path>
  <path d="M -38 -12 Q -36 -32 -18 -38 Q -2 -42 14 -36 Q 30 -28 36 -10 Q 38 8 26 22 Q 10 32 -8 30 Q -28 26 -38 12 Q -42 -2 -38 -12 Z" fill="#8a2a26" stroke="#1a1612" stroke-width="1.8"></path>
  <path d="M -28 -8 Q -26 -24 -10 -28 Q 6 -32 18 -24 Q 28 -16 28 -2 Q 28 14 14 22 Q -2 26 -16 20 Q -30 12 -28 -8 Z" fill="#a83a36" stroke="#1a1612" stroke-width="1.6"></path>
  <path d="M -16 -4 Q -14 -16 -2 -18 Q 10 -20 16 -10 Q 18 2 10 10 Q -2 14 -12 8 Q -18 2 -16 -4 Z" fill="#c84a44" stroke="#1a1612" stroke-width="1.4"></path>
  <path d="M -8 -2 Q -6 -10 0 -12 Q 6 -12 8 -6 Q 10 2 4 6 Q -2 8 -7 4 Z" fill="#e8645c" stroke="#1a1612" stroke-width="1.2"></path>
  <path d="M -3 0 Q -2 -4 0 -5 Q 3 -4 4 0 Q 3 3 0 3 Q -2 3 -3 0 Z" fill="#1a1612"></path>
</symbol>
<symbol id="rose-y" viewBox="-60 -60 120 120">
  <path d="M -55 -8 Q -54 -42 -28 -52 Q -8 -56 12 -54 Q 38 -50 52 -28 Q 58 -8 54 14 Q 48 38 28 50 Q 6 56 -16 50 Q -42 42 -52 22 Q -58 6 -55 -8 Z" fill="#7a5520" stroke="#1a1612" stroke-width="3"></path>
  <path d="M -45 -10 Q -42 -38 -22 -44 Q -2 -48 16 -42 Q 38 -34 44 -10 Q 46 12 32 32 Q 16 44 -4 42 Q -28 38 -42 22 Q -50 6 -45 -10 Z" fill="#a8772a" stroke="#1a1612" stroke-width="2"></path>
  <path d="M -38 -12 Q -36 -32 -18 -38 Q -2 -42 14 -36 Q 30 -28 36 -10 Q 38 8 26 22 Q 10 32 -8 30 Q -28 26 -38 12 Q -42 -2 -38 -12 Z" fill="#c89a3a" stroke="#1a1612" stroke-width="1.8"></path>
  <path d="M -28 -8 Q -26 -24 -10 -28 Q 6 -32 18 -24 Q 28 -16 28 -2 Q 28 14 14 22 Q -2 26 -16 20 Q -30 12 -28 -8 Z" fill="#e0b656" stroke="#1a1612" stroke-width="1.6"></path>
  <path d="M -16 -4 Q -14 -16 -2 -18 Q 10 -20 16 -10 Q 18 2 10 10 Q -2 14 -12 8 Q -18 2 -16 -4 Z" fill="#f1cc6e" stroke="#1a1612" stroke-width="1.4"></path>
  <path d="M -8 -2 Q -6 -10 0 -12 Q 6 -12 8 -6 Q 10 2 4 6 Q -2 8 -7 4 Z" fill="#f9e09e" stroke="#1a1612" stroke-width="1.2"></path>
  <path d="M -3 0 Q -2 -4 0 -5 Q 3 -4 4 0 Q 3 3 0 3 Q -2 3 -3 0 Z" fill="#5a3818"></path>
</symbol>
<symbol id="petal-bk" viewBox="-20 -50 40 100">
  <path d="M 0 -50 Q 18 -25 14 0 Q 8 30 0 50 Q -8 30 -14 0 Q -18 -25 0 -50 Z" fill="#8a2a26" stroke="#1a1612" stroke-width="2.5"></path>
  <path d="M 0 -40 Q 8 -20 5 0 Q 0 20 0 35" stroke="#1a1612" stroke-width="1.5" fill="none"></path>
</symbol>
</defs>
<rect width="750" height="1050" fill="#8a2a26"></rect>
<rect x="40" y="40" width="670" height="970" rx="30" ry="30" fill="#f1e7d0" stroke="#1a1612" stroke-width="6"></rect>
<rect x="55" y="55" width="640" height="940" rx="22" ry="22" fill="none" stroke="#1a1612" stroke-width="2"></rect>
<g transform="translate(375 525)">
  <circle r="350" fill="none" stroke="#1a1612" stroke-width="2" stroke-dasharray="2 8"></circle>
  <circle r="320" fill="none" stroke="#1a1612" stroke-width="2"></circle>
  <circle r="300" fill="none" stroke="#1a1612" stroke-width="1"></circle>
  <g>
    <use href="#petal-bk" x="-20" y="-310" width="40" height="100"></use>
    <g transform="rotate(30)"><use href="#petal-bk" x="-20" y="-310" width="40" height="100"></use></g>
    <g transform="rotate(60)"><use href="#petal-bk" x="-20" y="-310" width="40" height="100"></use></g>
    <g transform="rotate(90)"><use href="#petal-bk" x="-20" y="-310" width="40" height="100"></use></g>
    <g transform="rotate(120)"><use href="#petal-bk" x="-20" y="-310" width="40" height="100"></use></g>
    <g transform="rotate(150)"><use href="#petal-bk" x="-20" y="-310" width="40" height="100"></use></g>
    <g transform="rotate(180)"><use href="#petal-bk" x="-20" y="-310" width="40" height="100"></use></g>
    <g transform="rotate(210)"><use href="#petal-bk" x="-20" y="-310" width="40" height="100"></use></g>
    <g transform="rotate(240)"><use href="#petal-bk" x="-20" y="-310" width="40" height="100"></use></g>
    <g transform="rotate(270)"><use href="#petal-bk" x="-20" y="-310" width="40" height="100"></use></g>
    <g transform="rotate(300)"><use href="#petal-bk" x="-20" y="-310" width="40" height="100"></use></g>
    <g transform="rotate(330)"><use href="#petal-bk" x="-20" y="-310" width="40" height="100"></use></g>
  </g>
  <circle r="200" fill="#f1e7d0" stroke="#1a1612" stroke-width="3"></circle>
  <g fill="#2d4a32" stroke="#1a1612" stroke-width="2">
    <g><path d="M 0 -190 Q 25 -130 0 -70 Q -25 -130 0 -190 Z"></path></g>
    <g transform="rotate(45)"><path d="M 0 -190 Q 25 -130 0 -70 Q -25 -130 0 -190 Z"></path></g>
    <g transform="rotate(90)"><path d="M 0 -190 Q 25 -130 0 -70 Q -25 -130 0 -190 Z"></path></g>
    <g transform="rotate(135)"><path d="M 0 -190 Q 25 -130 0 -70 Q -25 -130 0 -190 Z"></path></g>
    <g transform="rotate(180)"><path d="M 0 -190 Q 25 -130 0 -70 Q -25 -130 0 -190 Z"></path></g>
    <g transform="rotate(225)"><path d="M 0 -190 Q 25 -130 0 -70 Q -25 -130 0 -190 Z"></path></g>
    <g transform="rotate(270)"><path d="M 0 -190 Q 25 -130 0 -70 Q -25 -130 0 -190 Z"></path></g>
    <g transform="rotate(315)"><path d="M 0 -190 Q 25 -130 0 -70 Q -25 -130 0 -190 Z"></path></g>
  </g>
  <use href="#rose-r" x="-100" y="-100" width="200" height="200"></use>
  <g fill="#c89a3a" stroke="#1a1612" stroke-width="2">
    <circle cx="0" cy="-340" r="14"></circle><circle cx="0" cy="340" r="14"></circle>
    <circle cx="-340" cy="0" r="14"></circle><circle cx="340" cy="0" r="14"></circle>
  </g>
</g>
</svg>