<svg xmlns="http://www.w3.org/2000/svg" viewBox="0 0 750 1050" width="750" height="1050">
<defs>
<symbol id="leaf-w" viewBox="-32 -16 64 32">
  <path d="M -30 0 Q -16 -16 0 -14 Q 16 -12 30 0 Q 16 14 0 12 Q -14 10 -30 0 Z" fill="#2d4a32" stroke="#1a1612" stroke-width="2.5"></path>
  <path d="M -28 0 Q -16 -14 0 -12 Q 14 -10 6 -2 Q -8 -2 -22 2 Q -28 2 -28 0 Z" fill="#3d5e42"></path>
  <path d="M -27 0 Q 0 -2 27 0" stroke="#1a1612" stroke-width="1.6" fill="none"></path>
  <g stroke="#1a1612" stroke-width="1" fill="none">
    <path d="M -18 -1 L -12 -9"></path><path d="M -8 -2 L -2 -10"></path><path d="M 4 -2 L 10 -10"></path>
    <path d="M 14 -1 L 18 -8"></path><path d="M -18 1 L -12 8"></path><path d="M -8 2 L -2 10"></path>
    <path d="M 4 2 L 10 9"></path><path d="M 14 1 L 18 7"></path>
  </g>
</symbol>
<symbol id="rose-r" viewBox="-60 -60 120 120">
  <path d="M -55 -8 Q -54 -42 -28 -52 Q -8 -56 12 -54 Q 38 -50 52 -28 Q 58 -8 54 14 Q 48 38 28 50 Q 6 56 -16 50 Q -42 42 -52 22 Q -58 6 -55 -8 Z" fill="#5a1818" stroke="#1a1612" stroke-width="3"></path>
  <path d="M -45 -10 Q -42 -38 -22 -44 Q -2 -48 16 -42 Q 38 -34 44 -10 Q 46 12 32 32 Q 16 44 -4 42 Q -28 38 -42 22 Q -50 6 -45 -10 Z" fill="#7a1f1f" stroke="#1a1612" stroke-width="2"></path>
  <path d="M -38 -12 Q -36 -32 -18 -38 Q -2 -42 14 -36 Q 30 -28 36 -10 Q 38 8 26 22 Q 10 32 -8 30 Q -28 26 -38 12 Q -42 -2 -38 -12 Z" fill="#8a2a26" stroke="#1a1612" stroke-width="1.8"></path>
  <path d="M -28 -8 Q -26 -24 -10 -28 Q 6 -32 18 -24 Q 28 -16 28 -2 Q 28 14 14 22 Q -2 26 -16 20 Q -30 12 -28 -8 Z" fill="#a83a36" stroke="#1a1612" stroke-width="1.6"></path>
  <path d="M -16 -4 Q -14 -16 -2 -18 Q 10 -20 16 -10 Q 18 2 10 10 Q -2 14 -12 8 Q -18 2 -16 -4 Z" fill="#c84a44" stroke="#1a1612" stroke-width="1.4"></path>
  <path d="M -8 -2 Q -6 -10 0 -12 Q 6 -12 8 -6 Q 10 2 4 6 Q -2 8 -7 4 Z" fill="#e8645c" stroke="#1a1612" stroke-width="1.2"></path>
  <path d="M -3 0 Q -2 -4 0 -5 Q 3 -4 4 0 Q 3 3 0 3 Q -2 3 -3 0 Z" fill="#1a1612"></path>
</symbol>
<symbol id="rose-y" viewBox="-60 -60 120 120">
  <path d="M -55 -8 Q -54 -42 -28 -52 Q -8 -56 12 -54 Q 38 -50 52 -28 Q 58 -8 54 14 Q 48 38 28 50 Q 6 56 -16 50 Q -42 42 -52 22 Q -58 6 -55 -8 Z" fill="#7a5520" stroke="#1a1612" stroke-width="3"></path>
  <path d="M -45 -10 Q -42 -38 -22 -44 Q -2 -48 16 -42 Q 38 -34 44 -10 Q 46 12 32 32 Q 16 44 -4 42 Q -28 38 -42 22 Q -50 6 -45 -10 Z" fill="#a8772a" stroke="#1a1612" stroke-width="2"></path>
  <path d="M -38 -12 Q -36 -32 -18 -38 Q -2 -42 14 -36 Q 30 -28 36 -10 Q 38 8 26 22 Q 10 32 -8 30 Q -28 26 -38 12 Q -42 -2 -38 -12 Z" fill="#c89a3a" stroke="#1a1612" stroke-width="1.8"></path>
  <path d="M -28 -8 Q -26 -24 -10 -28 Q 6 -32 18 -24 Q 28 -16 28 -2 Q 28 14 14 22 Q -2 26 -16 20 Q -30 12 -28 -8 Z" fill="#e0b656" stroke="#1a1612" stroke-width="1.6"></path>
  <path d="M -16 -4 Q -14 -16 -2 -18 Q 10 -20 16 -10 Q 18 2 10 10 Q -2 14 -12 8 Q -18 2 -16 -4 Z" fill="#f1cc6e" stroke="#1a1612" stroke-width="1.4"></path>
  <path d="M -8 -2 Q -6 -10 0 -12 Q 6 -12 8 -6 Q 10 2 4 6 Q -2 8 -7 4 Z" fill="#f9e09e" stroke="#1a1612" stroke-width="1.2"></path>
  <path d="M -3 0 Q -2 -4 0 -5 Q 3 -4 4 0 Q 3 3 0 3 Q -2 3 -3 0 Z" fill="#5a3818"></path>
</symbol>
<symbol id="jack-half" viewBox="-220 -340 440 360">
  
  <g>
    
    <path d="M -110 -250&#xA;             Q -120 -290 -70 -300&#xA;             Q 0 -310 70 -300&#xA;             Q 120 -290 110 -250&#xA;             L 100 -240 Q 0 -252 -100 -240 Z" fill="#8a2a26" stroke="#1a1612" stroke-width="3"></path>
    
    <path d="M -100 -240 Q 0 -252 100 -240 L 100 -228 Q 0 -240 -100 -228 Z" fill="#c89a3a" stroke="#1a1612" stroke-width="2"></path>
    
    <g transform="translate(-50 -240)"><circle r="6" fill="#c89a3a" stroke="#1a1612" stroke-width="1.5"></circle><circle r="3" fill="#c89a3a"></circle></g>
    
    <path d="M 60 -290 Q 100 -340 150 -360 Q 175 -345 165 -315 Q 145 -295 110 -285 Q 80 -280 70 -285 Z" fill="#fbf6e8" stroke="#1a1612" stroke-width="2.5"></path>
    <g stroke="#1a1612" stroke-width="1" fill="none">
      <path d="M 75 -288 Q 90 -300 110 -300"></path>
      <path d="M 85 -290 Q 100 -310 130 -320"></path>
      <path d="M 100 -290 Q 115 -325 145 -345"></path>
      <path d="M 115 -288 Q 130 -320 155 -340"></path>
    </g>
    <path d="M 70 -287 Q 110 -310 150 -355" stroke="#c89a3a" stroke-width="1.5" fill="none"></path>
  </g>
  
  <path d="M -110 -240 Q -150 -200 -150 -130 Q -145 -90 -125 -78 L -100 -110 Q -115 -160 -110 -240 Z" fill="#5a3818"></path>
  <path d="M 110 -240 Q 150 -200 150 -130 Q 145 -90 125 -78 L 100 -110 Q 115 -160 110 -240 Z" fill="#5a3818"></path>
  
  <g stroke="#7a4828" stroke-width="1.8" fill="none" stroke-linecap="round">
    <path d="M -135 -200 Q -148 -160 -145 -120"></path>
    <path d="M -120 -160 Q -130 -120 -128 -90"></path>
    <path d="M 135 -200 Q 148 -160 145 -120"></path>
    <path d="M 120 -160 Q 130 -120 128 -90"></path>
  </g>

  
  <path d="M -78 -240 Q -86 -180 -82 -140 Q -76 -105 -58 -85 Q -38 -65 -16 -60 Q 0 -56 16 -60 Q 38 -65 58 -85 Q 76 -105 82 -140 Q 86 -180 78 -240 Z" fill="#dfb88a"></path>
  <path d="M -10 -240 Q -12 -180 -8 -140 Q -2 -100 8 -75 Q 18 -65 38 -65 Q 58 -68 70 -88 Q 80 -118 80 -160 Q 80 -210 78 -240 Z" fill="#f0d2a8"></path>
  <path d="M -78 -240 Q -86 -180 -82 -140 Q -76 -105 -58 -85 Q -38 -65 -16 -60 Q 0 -56 16 -60 Q 38 -65 58 -85 Q 76 -105 82 -140 Q 86 -180 78 -240 Z" fill="none" stroke="#1a1612" stroke-width="3"></path>
  
  <path d="M -56 -185 Q -42 -195 -28 -190 Q -28 -186 -42 -188 Q -54 -186 -56 -182 Z" fill="#1a1612"></path>
  <path d="M 28 -190 Q 42 -195 56 -185 Q 54 -186 42 -188 Q 28 -186 28 -186 Z" fill="#1a1612"></path>
  
  <g>
    <path d="M -54 -160 Q -46 -168 -32 -168 Q -22 -164 -22 -158 Q -32 -152 -46 -154 Z" fill="#fbf6e8" stroke="#1a1612" stroke-width="2.5"></path>
    <ellipse cx="-38" cy="-160" rx="7" ry="7" fill="#3a4a2a" stroke="#1a1612" stroke-width="1.4"></ellipse>
    <circle cx="-38" cy="-160" r="3.2" fill="#1a1612"></circle>
    <circle cx="-40" cy="-162" r="1.4" fill="#fbf6e8"></circle>
    <path d="M -54 -160 Q -38 -170 -22 -158" stroke="#1a1612" stroke-width="3" fill="none" stroke-linecap="round"></path>
  </g>
  <g>
    <path d="M 54 -160 Q 46 -168 32 -168 Q 22 -164 22 -158 Q 32 -152 46 -154 Z" fill="#fbf6e8" stroke="#1a1612" stroke-width="2.5"></path>
    <ellipse cx="38" cy="-160" rx="7" ry="7" fill="#3a4a2a" stroke="#1a1612" stroke-width="1.4"></ellipse>
    <circle cx="38" cy="-160" r="3.2" fill="#1a1612"></circle>
    <circle cx="36" cy="-162" r="1.4" fill="#fbf6e8"></circle>
    <path d="M 54 -160 Q 38 -170 22 -158" stroke="#1a1612" stroke-width="3" fill="none" stroke-linecap="round"></path>
  </g>
  
  <path d="M 2 -160 Q 3 -130 5 -115" stroke="#b88860" stroke-width="1.4" fill="none"></path>
  <path d="M -7 -110 Q -9 -103 -6 -98 Q 0 -94 6 -98 Q 9 -103 7 -110" fill="none" stroke="#1a1612" stroke-width="1.6"></path>
  <ellipse cx="-3" cy="-101" rx="1.8" ry="1.2" fill="#1a1612"></ellipse>
  <ellipse cx="3" cy="-101" rx="1.8" ry="1.2" fill="#1a1612"></ellipse>
  
  <path d="M -12 -82 Q 0 -76 12 -82" stroke="#5a1818" stroke-width="2.2" fill="none" stroke-linecap="round"></path>
  <path d="M -10 -82 Q 0 -78 10 -82 Q 0 -74 -10 -82 Z" fill="#a83a36" stroke="#1a1612" stroke-width="1.4"></path>
  
  <path d="M -8 -68 Q 0 -62 8 -68" stroke="#b88860" stroke-width="1.5" fill="none"></path>
  
  <path d="M -210 18 Q -160 -10 -110 -8 Q -60 0 -28 4 Q 0 8 28 4 Q 60 0 110 -8 Q 160 -10 210 18 L 210 22 L -210 22 Z" fill="#8a2a26" stroke="#1a1612" stroke-width="3"></path>
  
  <g fill="#fbf6e8" stroke="#1a1612" stroke-width="2">
    <path d="M -90 -10 Q -70 -22 -50 -14 Q -30 -22 -10 -14 Q 0 -10 10 -14 Q 30 -22 50 -14 Q 70 -22 90 -10 Q 70 0 50 -4 Q 30 0 10 -4 Q 0 0 -10 -4 Q -30 0 -50 -4 Q -70 0 -90 -10 Z"></path>
  </g>
  
  <path d="M -200 16 Q -100 -2 0 6 Q 100 -2 200 16" fill="none" stroke="#c89a3a" stroke-width="2"></path>
  
  <g fill="#c89a3a" stroke="#1a1612" stroke-width="1.2">
    <circle cx="-60" cy="14" r="4"></circle><circle cx="-30" cy="10" r="4"></circle>
    <circle cx="0" cy="8" r="4"></circle>
    <circle cx="30" cy="10" r="4"></circle><circle cx="60" cy="14" r="4"></circle>
  </g>
</symbol></defs>

<rect width="750" height="1050" fill="#f1e7d0"></rect>
<rect x="20" y="20" width="710" height="1010" rx="40" ry="40" fill="none" stroke="#1a1612" stroke-width="6"></rect>
<rect x="35" y="35" width="680" height="980" rx="30" ry="30" fill="none" stroke="#1a1612" stroke-width="2"></rect>

<g font-family="Georgia, &#39;Times New Roman&#39;, serif" font-weight="700" fill="#1a1612">
  <text x="100" y="180" font-size="124" text-anchor="middle">J</text>
  <g transform="translate(100 250) scale(0.72)"><path d="M 0 50 C -10 35 -50 12 -50 -15 C -50 -38 -32 -50 -18 -50 C -8 -50 -2 -42 0 -36 C 2 -42 8 -50 18 -50 C 32 -50 50 -38 50 -15 C 50 12 10 35 0 50 Z" fill="#8a2a26"></path></g>
</g>
<g transform="rotate(180 375 525)">
<g font-family="Georgia, &#39;Times New Roman&#39;, serif" font-weight="700" fill="#1a1612">
  <text x="100" y="180" font-size="124" text-anchor="middle">J</text>
  <g transform="translate(100 250) scale(0.72)"><path d="M 0 50 C -10 35 -50 12 -50 -15 C -50 -38 -32 -50 -18 -50 C -8 -50 -2 -42 0 -36 C 2 -42 8 -50 18 -50 C 32 -50 50 -38 50 -15 C 50 12 10 35 0 50 Z" fill="#8a2a26"></path></g>
</g></g>
<rect x="195" y="195" width="360" height="660" rx="18" ry="18" fill="#f1e7d0" stroke="#1a1612" stroke-width="3"></rect>

<g>
  
  <use href="#rose-r" x="80" y="200" width="100" height="100"></use>
  <use href="#rose-y" x="570" y="200" width="100" height="100"></use>
  <use href="#rose-r" x="80" y="750" width="100" height="100"></use>
  <use href="#rose-y" x="570" y="750" width="100" height="100"></use>
  
  <use href="#leaf-w" x="180" y="240" width="60" height="30" transform="rotate(20 210 255)"></use>
  <use href="#leaf-w" x="510" y="240" width="60" height="30" transform="rotate(-20 540 255)"></use>
  <use href="#leaf-w" x="180" y="800" width="60" height="30" transform="rotate(-20 210 815)"></use>
  <use href="#leaf-w" x="510" y="800" width="60" height="30" transform="rotate(20 540 815)"></use>
  
  <g stroke="#1a1612" stroke-width="2.5" fill="none" stroke-linecap="round">
    <path d="M 130 290 Q 110 400 130 525 Q 150 650 130 760"></path>
    <path d="M 620 290 Q 640 400 620 525 Q 600 650 620 760"></path>
  </g>
  <use href="#leaf-w" x="100" y="380" width="55" height="28" transform="rotate(70 128 394)"></use>
  <use href="#leaf-w" x="100" y="640" width="55" height="28" transform="rotate(110 128 654)"></use>
  <use href="#leaf-w" x="595" y="380" width="55" height="28" transform="rotate(-70 622 394)"></use>
  <use href="#leaf-w" x="595" y="640" width="55" height="28" transform="rotate(-110 622 654)"></use>
</g>

<g transform="translate(375 525)">
  <use href="#jack-half" x="-220" y="-340" width="440" height="360"></use>
</g>

<g transform="translate(375 525) rotate(180)">
  <use href="#jack-half" x="-220" y="-340" width="440" height="360"></use>
</g>

<line x1="200" y1="525" x2="550" y2="525" stroke="#1a1612" stroke-width="1.5" stroke-dasharray="4 4"></line>


<g>
  <g transform="translate(375 140) scale(0.85)"><path d="M 0 50 C -10 35 -50 12 -50 -15 C -50 -38 -32 -50 -18 -50 C -8 -50 -2 -42 0 -36 C 2 -42 8 -50 18 -50 C 32 -50 50 -38 50 -15 C 50 12 10 35 0 50 Z" fill="#8a2a26"></path></g>
  <g transform="translate(375 910) rotate(180) scale(0.85)"><path d="M 0 50 C -10 35 -50 12 -50 -15 C -50 -38 -32 -50 -18 -50 C -8 -50 -2 -42 0 -36 C 2 -42 8 -50 18 -50 C 32 -50 50 -38 50 -15 C 50 12 10 35 0 50 Z" fill="#8a2a26"></path></g>
</g>
</svg>