<svg xmlns="http://www.w3.org/2000/svg" viewBox="0 0 750 1050" width="750" height="1050">
<defs>
<symbol id="leaf-w" viewBox="-32 -16 64 32">
  <path d="M -30 0 Q -16 -16 0 -14 Q 16 -12 30 0 Q 16 14 0 12 Q -14 10 -30 0 Z" fill="#2d4a32" stroke="#1a1612" stroke-width="2.5"></path>
  <path d="M -28 0 Q -16 -14 0 -12 Q 14 -10 6 -2 Q -8 -2 -22 2 Q -28 2 -28 0 Z" fill="#3d5e42"></path>
  <path d="M -27 0 Q 0 -2 27 0" stroke="#1a1612" stroke-width="1.6" fill="none"></path>
  <g stroke="#1a1612" stroke-width="1" fill="none">
    <path d="M -18 -1 L -12 -9"></path><path d="M -8 -2 L -2 -10"></path><path d="M 4 -2 L 10 -10"></path>
    <path d="M 14 -1 L 18 -8"></path><path d="M -18 1 L -12 8"></path><path d="M -8 2 L -2 10"></path>
    <path d="M 4 2 L 10 9"></path><path d="M 14 1 L 18 7"></path>
  </g>
</symbol>
<symbol id="rose-r" viewBox="-60 -60 120 120">
  <path d="M -55 -8 Q -54 -42 -28 -52 Q -8 -56 12 -54 Q 38 -50 52 -28 Q 58 -8 54 14 Q 48 38 28 50 Q 6 56 -16 50 Q -42 42 -52 22 Q -58 6 -55 -8 Z" fill="#5a1818" stroke="#1a1612" stroke-width="3"></path>
  <path d="M -45 -10 Q -42 -38 -22 -44 Q -2 -48 16 -42 Q 38 -34 44 -10 Q 46 12 32 32 Q 16 44 -4 42 Q -28 38 -42 22 Q -50 6 -45 -10 Z" fill="#7a1f1f" stroke="#1a1612" stroke-width="2"></path>
  <path d="M -38 -12 Q -36 -32 -18 -38 Q -2 -42 14 -36 Q 30 -28 36 -10 Q 38 8 26 22 Q 10 32 -8 30 Q -28 26 -38 12 Q -42 -2 -38 -12 Z" fill="#8a2a26" stroke="#1a1612" stroke-width="1.8"></path>
  <path d="M -28 -8 Q -26 -24 -10 -28 Q 6 -32 18 -24 Q 28 -16 28 -2 Q 28 14 14 22 Q -2 26 -16 20 Q -30 12 -28 -8 Z" fill="#a83a36" stroke="#1a1612" stroke-width="1.6"></path>
  <path d="M -16 -4 Q -14 -16 -2 -18 Q 10 -20 16 -10 Q 18 2 10 10 Q -2 14 -12 8 Q -18 2 -16 -4 Z" fill="#c84a44" stroke="#1a1612" stroke-width="1.4"></path>
  <path d="M -8 -2 Q -6 -10 0 -12 Q 6 -12 8 -6 Q 10 2 4 6 Q -2 8 -7 4 Z" fill="#e8645c" stroke="#1a1612" stroke-width="1.2"></path>
  <path d="M -3 0 Q -2 -4 0 -5 Q 3 -4 4 0 Q 3 3 0 3 Q -2 3 -3 0 Z" fill="#1a1612"></path>
</symbol>
<symbol id="rose-y" viewBox="-60 -60 120 120">
  <path d="M -55 -8 Q -54 -42 -28 -52 Q -8 -56 12 -54 Q 38 -50 52 -28 Q 58 -8 54 14 Q 48 38 28 50 Q 6 56 -16 50 Q -42 42 -52 22 Q -58 6 -55 -8 Z" fill="#7a5520" stroke="#1a1612" stroke-width="3"></path>
  <path d="M -45 -10 Q -42 -38 -22 -44 Q -2 -48 16 -42 Q 38 -34 44 -10 Q 46 12 32 32 Q 16 44 -4 42 Q -28 38 -42 22 Q -50 6 -45 -10 Z" fill="#a8772a" stroke="#1a1612" stroke-width="2"></path>
  <path d="M -38 -12 Q -36 -32 -18 -38 Q -2 -42 14 -36 Q 30 -28 36 -10 Q 38 8 26 22 Q 10 32 -8 30 Q -28 26 -38 12 Q -42 -2 -38 -12 Z" fill="#c89a3a" stroke="#1a1612" stroke-width="1.8"></path>
  <path d="M -28 -8 Q -26 -24 -10 -28 Q 6 -32 18 -24 Q 28 -16 28 -2 Q 28 14 14 22 Q -2 26 -16 20 Q -30 12 -28 -8 Z" fill="#e0b656" stroke="#1a1612" stroke-width="1.6"></path>
  <path d="M -16 -4 Q -14 -16 -2 -18 Q 10 -20 16 -10 Q 18 2 10 10 Q -2 14 -12 8 Q -18 2 -16 -4 Z" fill="#f1cc6e" stroke="#1a1612" stroke-width="1.4"></path>
  <path d="M -8 -2 Q -6 -10 0 -12 Q 6 -12 8 -6 Q 10 2 4 6 Q -2 8 -7 4 Z" fill="#f9e09e" stroke="#1a1612" stroke-width="1.2"></path>
  <path d="M -3 0 Q -2 -4 0 -5 Q 3 -4 4 0 Q 3 3 0 3 Q -2 3 -3 0 Z" fill="#5a3818"></path>
</symbol>
<symbol id="king-half" viewBox="-220 -340 440 360">
  
  <g>
    <path d="M -110 -290&#xA;             L -85 -260 L -75 -300&#xA;             L -45 -260 L -30 -310&#xA;             L 0 -270 L 30 -310&#xA;             L 45 -260 L 75 -300&#xA;             L 85 -260 L 110 -290&#xA;             L 110 -250 L -110 -250 Z" fill="#c89a3a" stroke="#1a1612" stroke-width="3"></path>
    
    <circle cx="-75" cy="-288" r="5" fill="#8a2a26" stroke="#1a1612" stroke-width="1.5"></circle>
    <circle cx="-30" cy="-298" r="5" fill="#2d4a32" stroke="#1a1612" stroke-width="1.5"></circle>
    <circle cx="0" cy="-262" r="6" fill="#8a2a26" stroke="#1a1612" stroke-width="1.5"></circle>
    <circle cx="30" cy="-298" r="5" fill="#2d4a32" stroke="#1a1612" stroke-width="1.5"></circle>
    <circle cx="75" cy="-288" r="5" fill="#8a2a26" stroke="#1a1612" stroke-width="1.5"></circle>
    
    <path d="M -110 -250 L 110 -250 M -110 -240 L 110 -240" stroke="#1a1612" stroke-width="1.5"></path>
    <g fill="#1a1612"><circle cx="-90" cy="-245" r="2"></circle><circle cx="-60" cy="-245" r="2"></circle><circle cx="-30" cy="-245" r="2"></circle><circle cx="0" cy="-245" r="2"></circle><circle cx="30" cy="-245" r="2"></circle><circle cx="60" cy="-245" r="2"></circle><circle cx="90" cy="-245" r="2"></circle></g>
  </g>

  
  <path d="M -130 -250 Q -160 -200 -150 -130 Q -140 -90 -120 -78 L -100 -130 Q -110 -180 -110 -250 Z" fill="#1a1612"></path>
  <path d="M 130 -250 Q 160 -200 150 -130 Q 140 -90 120 -78 L 100 -130 Q 110 -180 110 -250 Z" fill="#1a1612"></path>

  
  <path d="M -82 -250 Q -90 -200 -85 -150 Q -78 -110 -60 -90 Q -42 -70 -22 -65 L -22 -55 L 22 -55 L 22 -65 Q 42 -70 60 -90 Q 78 -110 85 -150 Q 90 -200 82 -250 Z" fill="#dfb88a" stroke="#1a1612" stroke-width="3"></path>
  
  <path d="M -10 -240 Q -12 -180 -6 -130 Q 2 -90 18 -75 Q 38 -78 60 -100 Q 78 -130 82 -180 Q 84 -240 80 -250 Z" fill="#f0d2a8"></path>
  
  <path d="M -82 -250 Q -90 -200 -85 -150 Q -78 -110 -60 -90 Q -42 -70 -22 -65 L 22 -65 Q 42 -70 60 -90 Q 78 -110 85 -150 Q 90 -200 82 -250" fill="none" stroke="#1a1612" stroke-width="3"></path>

  
  <path d="M -62 -198 Q -50 -212 -28 -206 Q -22 -200 -28 -198 Q -50 -202 -62 -192 Z" fill="#1a1612"></path>
  <path d="M 28 -206 Q 50 -212 62 -198 Q 62 -192 50 -202 Q 28 -198 22 -200 Z" fill="#1a1612"></path>

  
  <g>
    <path d="M -56 -176 Q -46 -184 -32 -184 Q -22 -180 -22 -174 Q -32 -166 -46 -168 Q -54 -172 -56 -176 Z" fill="#fbf6e8" stroke="#1a1612" stroke-width="2.5"></path>
    <ellipse cx="-40" cy="-176" rx="7" ry="7" fill="#3a4a2a" stroke="#1a1612" stroke-width="1.5"></ellipse>
    <circle cx="-40" cy="-176" r="3.2" fill="#1a1612"></circle>
    <circle cx="-42" cy="-178" r="1.4" fill="#fbf6e8"></circle>
    <path d="M -56 -176 Q -42 -185 -22 -174" stroke="#1a1612" stroke-width="3" fill="none" stroke-linecap="round"></path>
  </g>
  <g>
    <path d="M 56 -176 Q 46 -184 32 -184 Q 22 -180 22 -174 Q 32 -166 46 -168 Q 54 -172 56 -176 Z" fill="#fbf6e8" stroke="#1a1612" stroke-width="2.5"></path>
    <ellipse cx="40" cy="-176" rx="7" ry="7" fill="#3a4a2a" stroke="#1a1612" stroke-width="1.5"></ellipse>
    <circle cx="40" cy="-176" r="3.2" fill="#1a1612"></circle>
    <circle cx="38" cy="-178" r="1.4" fill="#fbf6e8"></circle>
    <path d="M 56 -176 Q 42 -185 22 -174" stroke="#1a1612" stroke-width="3" fill="none" stroke-linecap="round"></path>
  </g>

  
  <path d="M 0 -180 Q -3 -150 -8 -130 Q -10 -120 -4 -116 Q 0 -114 4 -116 Q 10 -120 8 -130 Q 3 -150 0 -180" fill="none" stroke="#1a1612" stroke-width="2.2"></path>
  <ellipse cx="-4" cy="-122" rx="2.4" ry="1.4" fill="#1a1612"></ellipse>
  <ellipse cx="4" cy="-122" rx="2.4" ry="1.4" fill="#1a1612"></ellipse>

  
  <path d="M -38 -110&#xA;           Q -52 -108 -64 -98 Q -52 -94 -42 -98&#xA;           Q -28 -100 -14 -104&#xA;           Q 0 -106 14 -104&#xA;           Q 28 -100 42 -98 Q 52 -94 64 -98&#xA;           Q 52 -108 38 -110&#xA;           Q 18 -116 0 -114 Q -18 -116 -38 -110 Z" fill="#1a1612" stroke="#1a1612" stroke-width="1"></path>
  
  <g stroke="#3a2a22" stroke-width="0.8" fill="none">
    <path d="M -52 -100 Q -42 -106 -30 -108"></path>
    <path d="M 52 -100 Q 42 -106 30 -108"></path>
  </g>

  
  <path d="M -10 -94 Q 0 -90 10 -94" stroke="#5a1818" stroke-width="2.4" fill="none" stroke-linecap="round"></path>

  
  <path d="M -55 -90&#xA;           Q -78 -70 -85 -30&#xA;           Q -88 10 -75 30&#xA;           Q -55 50 -30 55&#xA;           Q 0 58 30 55&#xA;           Q 55 50 75 30&#xA;           Q 88 10 85 -30&#xA;           Q 78 -70 55 -90&#xA;           L 22 -85 L 0 -78 L -22 -85 Z" fill="#1a1612" stroke="#1a1612" stroke-width="2"></path>
  
  <g stroke="#3a2a22" stroke-width="1.2" fill="none" stroke-linecap="round">
    <path d="M -70 -50 Q -60 -20 -55 10"></path>
    <path d="M -55 -75 Q -50 -40 -45 -10"></path>
    <path d="M -38 -82 Q -36 -40 -32 0"></path>
    <path d="M -20 -82 Q -18 -30 -12 20"></path>
    <path d="M 0 -78 Q 0 -20 0 30"></path>
    <path d="M 20 -82 Q 18 -30 12 20"></path>
    <path d="M 38 -82 Q 36 -40 32 0"></path>
    <path d="M 55 -75 Q 50 -40 45 -10"></path>
    <path d="M 70 -50 Q 60 -20 55 10"></path>
  </g>
  
  <g stroke="#3a2a22" stroke-width="1" fill="none">
    <path d="M -28 30 Q -20 40 -10 38"></path>
    <path d="M 28 30 Q 20 40 10 38"></path>
    <path d="M -10 50 Q 0 55 10 50"></path>
  </g>

  
  <path d="M -210 18&#xA;           Q -150 -10 -90 -8&#xA;           Q -45 0 -10 8&#xA;           Q 0 12 10 8&#xA;           Q 45 0 90 -8&#xA;           Q 150 -10 210 18&#xA;           L 210 22 L -210 22 Z" fill="#8a2a26" stroke="#1a1612" stroke-width="3"></path>
  
  <path d="M -200 18 Q -130 -2 -60 0 Q 0 6 60 0 Q 130 -2 200 18" fill="none" stroke="#a83a36" stroke-width="3"></path>
  
  <path d="M -180 16 Q -120 -2 -60 2 Q 0 8 60 2 Q 120 -2 180 16" fill="none" stroke="#c89a3a" stroke-width="2"></path>
  
  <g fill="#fbf6e8" stroke="#1a1612" stroke-width="1">
    <circle cx="-160" cy="14" r="3"></circle>
    <circle cx="-100" cy="6" r="3"></circle>
    <circle cx="-40" cy="2" r="3"></circle>
    <circle cx="40" cy="2" r="3"></circle>
    <circle cx="100" cy="6" r="3"></circle>
    <circle cx="160" cy="14" r="3"></circle>
  </g>
  
  <g transform="translate(0 14)">
    <circle r="10" fill="#c89a3a" stroke="#1a1612" stroke-width="2"></circle>
    <circle r="5" fill="#c89a3a" stroke="#1a1612" stroke-width="1.2"></circle>
  </g>
</symbol></defs>

<rect width="750" height="1050" fill="#f1e7d0"></rect>
<rect x="20" y="20" width="710" height="1010" rx="40" ry="40" fill="none" stroke="#1a1612" stroke-width="6"></rect>
<rect x="35" y="35" width="680" height="980" rx="30" ry="30" fill="none" stroke="#1a1612" stroke-width="2"></rect>

<g font-family="Georgia, &#39;Times New Roman&#39;, serif" font-weight="700" fill="#1a1612">
  <text x="100" y="180" font-size="124" text-anchor="middle">K</text>
  <g transform="translate(100 250) scale(0.72)"><path d="M 0 50 C -10 35 -50 12 -50 -15 C -50 -38 -32 -50 -18 -50 C -8 -50 -2 -42 0 -36 C 2 -42 8 -50 18 -50 C 32 -50 50 -38 50 -15 C 50 12 10 35 0 50 Z" fill="#8a2a26"></path></g>
</g>
<g transform="rotate(180 375 525)">
<g font-family="Georgia, &#39;Times New Roman&#39;, serif" font-weight="700" fill="#1a1612">
  <text x="100" y="180" font-size="124" text-anchor="middle">K</text>
  <g transform="translate(100 250) scale(0.72)"><path d="M 0 50 C -10 35 -50 12 -50 -15 C -50 -38 -32 -50 -18 -50 C -8 -50 -2 -42 0 -36 C 2 -42 8 -50 18 -50 C 32 -50 50 -38 50 -15 C 50 12 10 35 0 50 Z" fill="#8a2a26"></path></g>
</g></g>
<rect x="195" y="195" width="360" height="660" rx="18" ry="18" fill="#f1e7d0" stroke="#1a1612" stroke-width="3"></rect>

<g>
  
  <use href="#rose-r" x="80" y="200" width="100" height="100"></use>
  <use href="#rose-y" x="570" y="200" width="100" height="100"></use>
  <use href="#rose-r" x="80" y="750" width="100" height="100"></use>
  <use href="#rose-y" x="570" y="750" width="100" height="100"></use>
  
  <use href="#leaf-w" x="180" y="240" width="60" height="30" transform="rotate(20 210 255)"></use>
  <use href="#leaf-w" x="510" y="240" width="60" height="30" transform="rotate(-20 540 255)"></use>
  <use href="#leaf-w" x="180" y="800" width="60" height="30" transform="rotate(-20 210 815)"></use>
  <use href="#leaf-w" x="510" y="800" width="60" height="30" transform="rotate(20 540 815)"></use>
  
  <g stroke="#1a1612" stroke-width="2.5" fill="none" stroke-linecap="round">
    <path d="M 130 290 Q 110 400 130 525 Q 150 650 130 760"></path>
    <path d="M 620 290 Q 640 400 620 525 Q 600 650 620 760"></path>
  </g>
  <use href="#leaf-w" x="100" y="380" width="55" height="28" transform="rotate(70 128 394)"></use>
  <use href="#leaf-w" x="100" y="640" width="55" height="28" transform="rotate(110 128 654)"></use>
  <use href="#leaf-w" x="595" y="380" width="55" height="28" transform="rotate(-70 622 394)"></use>
  <use href="#leaf-w" x="595" y="640" width="55" height="28" transform="rotate(-110 622 654)"></use>
</g>

<g transform="translate(375 525)">
  <use href="#king-half" x="-220" y="-340" width="440" height="360"></use>
</g>

<g transform="translate(375 525) rotate(180)">
  <use href="#king-half" x="-220" y="-340" width="440" height="360"></use>
</g>

<line x1="200" y1="525" x2="550" y2="525" stroke="#1a1612" stroke-width="1.5" stroke-dasharray="4 4"></line>
</svg>