<svg xmlns="http://www.w3.org/2000/svg" viewBox="0 0 750 1050" width="750" height="1050">
<defs>
<symbol id="leaf-w" viewBox="-32 -16 64 32">
  <path d="M -30 0 Q -16 -16 0 -14 Q 16 -12 30 0 Q 16 14 0 12 Q -14 10 -30 0 Z" fill="#2d4a32" stroke="#1a1612" stroke-width="2.5"></path>
  <path d="M -28 0 Q -16 -14 0 -12 Q 14 -10 6 -2 Q -8 -2 -22 2 Q -28 2 -28 0 Z" fill="#3d5e42"></path>
  <path d="M -27 0 Q 0 -2 27 0" stroke="#1a1612" stroke-width="1.6" fill="none"></path>
  <g stroke="#1a1612" stroke-width="1" fill="none">
    <path d="M -18 -1 L -12 -9"></path><path d="M -8 -2 L -2 -10"></path><path d="M 4 -2 L 10 -10"></path>
    <path d="M 14 -1 L 18 -8"></path><path d="M -18 1 L -12 8"></path><path d="M -8 2 L -2 10"></path>
    <path d="M 4 2 L 10 9"></path><path d="M 14 1 L 18 7"></path>
  </g>
</symbol>
<symbol id="rose-r" viewBox="-60 -60 120 120">
  <path d="M -55 -8 Q -54 -42 -28 -52 Q -8 -56 12 -54 Q 38 -50 52 -28 Q 58 -8 54 14 Q 48 38 28 50 Q 6 56 -16 50 Q -42 42 -52 22 Q -58 6 -55 -8 Z" fill="#5a1818" stroke="#1a1612" stroke-width="3"></path>
  <path d="M -45 -10 Q -42 -38 -22 -44 Q -2 -48 16 -42 Q 38 -34 44 -10 Q 46 12 32 32 Q 16 44 -4 42 Q -28 38 -42 22 Q -50 6 -45 -10 Z" fill="#7a1f1f" stroke="#1a1612" stroke-width="2"></path>
  <path d="M -38 -12 Q -36 -32 -18 -38 Q -2 -42 14 -36 Q 30 -28 36 -10 Q 38 8 26 22 Q 10 32 -8 30 Q -28 26 -38 12 Q -42 -2 -38 -12 Z" fill="#8a2a26" stroke="#1a1612" stroke-width="1.8"></path>
  <path d="M -28 -8 Q -26 -24 -10 -28 Q 6 -32 18 -24 Q 28 -16 28 -2 Q 28 14 14 22 Q -2 26 -16 20 Q -30 12 -28 -8 Z" fill="#a83a36" stroke="#1a1612" stroke-width="1.6"></path>
  <path d="M -16 -4 Q -14 -16 -2 -18 Q 10 -20 16 -10 Q 18 2 10 10 Q -2 14 -12 8 Q -18 2 -16 -4 Z" fill="#c84a44" stroke="#1a1612" stroke-width="1.4"></path>
  <path d="M -8 -2 Q -6 -10 0 -12 Q 6 -12 8 -6 Q 10 2 4 6 Q -2 8 -7 4 Z" fill="#e8645c" stroke="#1a1612" stroke-width="1.2"></path>
  <path d="M -3 0 Q -2 -4 0 -5 Q 3 -4 4 0 Q 3 3 0 3 Q -2 3 -3 0 Z" fill="#1a1612"></path>
</symbol>
<symbol id="rose-y" viewBox="-60 -60 120 120">
  <path d="M -55 -8 Q -54 -42 -28 -52 Q -8 -56 12 -54 Q 38 -50 52 -28 Q 58 -8 54 14 Q 48 38 28 50 Q 6 56 -16 50 Q -42 42 -52 22 Q -58 6 -55 -8 Z" fill="#7a5520" stroke="#1a1612" stroke-width="3"></path>
  <path d="M -45 -10 Q -42 -38 -22 -44 Q -2 -48 16 -42 Q 38 -34 44 -10 Q 46 12 32 32 Q 16 44 -4 42 Q -28 38 -42 22 Q -50 6 -45 -10 Z" fill="#a8772a" stroke="#1a1612" stroke-width="2"></path>
  <path d="M -38 -12 Q -36 -32 -18 -38 Q -2 -42 14 -36 Q 30 -28 36 -10 Q 38 8 26 22 Q 10 32 -8 30 Q -28 26 -38 12 Q -42 -2 -38 -12 Z" fill="#c89a3a" stroke="#1a1612" stroke-width="1.8"></path>
  <path d="M -28 -8 Q -26 -24 -10 -28 Q 6 -32 18 -24 Q 28 -16 28 -2 Q 28 14 14 22 Q -2 26 -16 20 Q -30 12 -28 -8 Z" fill="#e0b656" stroke="#1a1612" stroke-width="1.6"></path>
  <path d="M -16 -4 Q -14 -16 -2 -18 Q 10 -20 16 -10 Q 18 2 10 10 Q -2 14 -12 8 Q -18 2 -16 -4 Z" fill="#f1cc6e" stroke="#1a1612" stroke-width="1.4"></path>
  <path d="M -8 -2 Q -6 -10 0 -12 Q 6 -12 8 -6 Q 10 2 4 6 Q -2 8 -7 4 Z" fill="#f9e09e" stroke="#1a1612" stroke-width="1.2"></path>
  <path d="M -3 0 Q -2 -4 0 -5 Q 3 -4 4 0 Q 3 3 0 3 Q -2 3 -3 0 Z" fill="#5a3818"></path>
</symbol>
<symbol id="queen-half" viewBox="-220 -340 440 360">
  
  <path d="M -140 -200 Q -190 -160 -195 -80 Q -195 -10 -170 18 L -130 18 Q -150 -40 -140 -100 Q -130 -150 -110 -200 Z" fill="#1a1612"></path>
  <path d="M 140 -200 Q 190 -160 195 -80 Q 195 -10 170 18 L 130 18 Q 150 -40 140 -100 Q 130 -150 110 -200 Z" fill="#1a1612"></path>
  
  <path d="M -135 -270 Q -110 -315 -55 -322 Q 0 -325 55 -322 Q 110 -315 135 -270 Q 110 -288 75 -290 Q 38 -290 8 -286 L 0 -278 L -8 -286 Q -38 -290 -75 -290 Q -110 -288 -135 -270 Z" fill="#1a1612"></path>
  
  <path d="M -135 -260 Q -175 -230 -180 -180 Q -180 -130 -160 -110 L -130 -130 Q -150 -160 -148 -200 Q -142 -240 -130 -260 Z" fill="#1a1612"></path>
  <path d="M -160 -110 Q -180 -85 -170 -50 Q -160 -25 -140 -22 Q -132 -50 -138 -80 Z" fill="#1a1612"></path>
  <path d="M 135 -260 Q 175 -230 180 -180 Q 180 -130 160 -110 L 130 -130 Q 150 -160 148 -200 Q 142 -240 130 -260 Z" fill="#1a1612"></path>
  <path d="M 160 -110 Q 180 -85 170 -50 Q 160 -25 140 -22 Q 132 -50 138 -80 Z" fill="#1a1612"></path>
  <path d="M -88 -278 Q -100 -250 -85 -218 Q -65 -195 -40 -200 Q -50 -230 -55 -260 Q -70 -278 -88 -278 Z" fill="#1a1612"></path>
  <path d="M 88 -278 Q 100 -250 85 -218 Q 65 -195 40 -200 Q 50 -230 55 -260 Q 70 -278 88 -278 Z" fill="#1a1612"></path>
  
  <g stroke="#4a3328" stroke-width="2" fill="none" stroke-linecap="round">
    <path d="M 0 -310 Q -15 -290 -30 -278"></path><path d="M 0 -310 Q 15 -290 30 -278"></path>
    <path d="M -25 -315 Q -45 -298 -65 -286"></path><path d="M 25 -315 Q 45 -298 65 -286"></path>
    <path d="M -85 -270 Q -90 -240 -75 -212"></path><path d="M 85 -270 Q 90 -240 75 -212"></path>
    <path d="M -150 -210 Q -168 -180 -170 -140"></path><path d="M -160 -160 Q -172 -130 -168 -100"></path>
    <path d="M -165 -90 Q -170 -60 -158 -35"></path>
    <path d="M 150 -210 Q 168 -180 170 -140"></path><path d="M 160 -160 Q 172 -130 168 -100"></path>
    <path d="M 165 -90 Q 170 -60 158 -35"></path>
  </g>
  
  <path d="M -120 -278 Q -100 -288 -60 -290 Q 0 -292 60 -290 Q 100 -288 120 -278 L 118 -262 Q 100 -270 60 -272 Q 0 -274 -60 -272 Q -100 -270 -118 -262 Z" fill="#2d4a32" stroke="#1a1612" stroke-width="2.5"></path>
  <g fill="#e8d8a8" stroke="#1a1612" stroke-width="1.2">
    <circle cx="-95" cy="-272" r="3"></circle><circle cx="-72" cy="-278" r="3.2"></circle><circle cx="-50" cy="-282" r="3.4"></circle>
    <circle cx="50" cy="-282" r="3.4"></circle><circle cx="72" cy="-278" r="3.2"></circle><circle cx="95" cy="-272" r="3"></circle>
  </g>
  <use href="#rose-r" x="-32" y="-330" width="64" height="64"></use>
  <use href="#leaf-w" x="-72" y="-310" width="48" height="24" transform="rotate(-25 -48 -298)"></use>
  <use href="#leaf-w" x="24" y="-310" width="48" height="24" transform="rotate(25 48 -298)"></use>

  
  <path d="M -78 -270 Q -86 -200 -82 -150 Q -76 -105 -58 -82 Q -38 -60 -16 -55 Q 0 -52 16 -55 Q 38 -60 58 -82 Q 76 -105 82 -150 Q 86 -200 78 -270 Z" fill="#dfb88a"></path>
  <path d="M -10 -270 Q -12 -200 -8 -150 Q -2 -100 8 -75 Q 18 -60 38 -60 Q 58 -65 70 -85 Q 80 -120 80 -180 Q 80 -240 78 -270 Z" fill="#f0d2a8"></path>
  <path d="M -78 -270 Q -86 -200 -82 -150 Q -76 -105 -58 -82 Q -38 -60 -16 -55 Q 0 -52 16 -55 Q 38 -60 58 -82 Q 76 -105 82 -150 Q 86 -200 78 -270 Z" fill="none" stroke="#1a1612" stroke-width="3.5"></path>
  <path d="M -58 -82 Q -38 -60 -16 -55 Q 0 -52 16 -55 Q 38 -60 58 -82" fill="none" stroke="#b88860" stroke-width="2.2"></path>
  <path d="M -10 -64 Q 0 -58 10 -64" stroke="#b88860" stroke-width="1.8" fill="none"></path>
  
  <path d="M -58 -198 Q -50 -210 -38 -210 Q -22 -208 -18 -198 Q -22 -200 -38 -202 Q -50 -202 -58 -195 Z" fill="#1a1612"></path>
  <path d="M 18 -198 Q 22 -208 38 -210 Q 50 -210 58 -198 Q 50 -202 38 -202 Q 22 -200 18 -195 Z" fill="#1a1612"></path>
  
  <g>
    <path d="M -58 -168 Q -52 -176 -40 -178 Q -28 -178 -20 -174 Q -22 -160 -36 -158 Q -50 -160 -58 -168 Z" fill="#fbf6e8" stroke="#1a1612" stroke-width="2.5"></path>
    <ellipse cx="-38" cy="-168" rx="9" ry="9" fill="#5a3a22" stroke="#1a1612" stroke-width="1.5"></ellipse>
    <circle cx="-38" cy="-168" r="3.8" fill="#1a1612"></circle>
    <circle cx="-40" cy="-170" r="1.8" fill="#fbf6e8"></circle>
    <path d="M -58 -168 Q -40 -180 -20 -174" stroke="#1a1612" stroke-width="3.2" fill="none" stroke-linecap="round"></path>
    <g stroke="#1a1612" stroke-width="1.4" stroke-linecap="round">
      <line x1="-55" y1="-172" x2="-58" y2="-178"></line><line x1="-48" y1="-176" x2="-50" y2="-183"></line>
      <line x1="-40" y1="-178" x2="-40" y2="-185"></line><line x1="-32" y1="-178" x2="-30" y2="-184"></line>
    </g>
  </g>
  <g>
    <path d="M 58 -168 Q 52 -176 40 -178 Q 28 -178 20 -174 Q 22 -160 36 -158 Q 50 -160 58 -168 Z" fill="#fbf6e8" stroke="#1a1612" stroke-width="2.5"></path>
    <ellipse cx="38" cy="-168" rx="9" ry="9" fill="#5a3a22" stroke="#1a1612" stroke-width="1.5"></ellipse>
    <circle cx="38" cy="-168" r="3.8" fill="#1a1612"></circle>
    <circle cx="36" cy="-170" r="1.8" fill="#fbf6e8"></circle>
    <path d="M 58 -168 Q 40 -180 20 -174" stroke="#1a1612" stroke-width="3.2" fill="none" stroke-linecap="round"></path>
    <g stroke="#1a1612" stroke-width="1.4" stroke-linecap="round">
      <line x1="55" y1="-172" x2="58" y2="-178"></line><line x1="48" y1="-176" x2="50" y2="-183"></line>
      <line x1="40" y1="-178" x2="40" y2="-185"></line><line x1="32" y1="-178" x2="30" y2="-184"></line>
    </g>
  </g>
  
  <path d="M 2 -180 Q 3 -150 5 -130" stroke="#b88860" stroke-width="1.5" fill="none"></path>
  <path d="M -8 -125 Q -10 -118 -7 -112 Q 0 -108 7 -112 Q 10 -118 8 -125" fill="none" stroke="#1a1612" stroke-width="1.8"></path>
  <ellipse cx="-4" cy="-115" rx="2.2" ry="1.4" fill="#1a1612"></ellipse>
  <ellipse cx="4" cy="-115" rx="2.2" ry="1.4" fill="#1a1612"></ellipse>
  
  <ellipse cx="-52" cy="-128" rx="12" ry="6" fill="#e89098" opacity="0.5"></ellipse>
  <ellipse cx="52" cy="-128" rx="12" ry="6" fill="#e89098" opacity="0.5"></ellipse>
  
  <path d="M -26 -94 Q -20 -100 -14 -98 Q -10 -94 -6 -98 Q -3 -102 0 -100 Q 3 -102 6 -98 Q 10 -94 14 -98 Q 20 -100 26 -94 Q 18 -88 10 -90 Q 0 -92 -10 -90 Q -18 -88 -26 -94 Z" fill="#7a1f1f" stroke="#1a1612" stroke-width="2"></path>
  <path d="M -24 -92 Q -16 -78 0 -76 Q 16 -78 24 -92 Q 18 -88 10 -90 Q 0 -92 -10 -90 Q -18 -88 -24 -92 Z" fill="#a83a36" stroke="#1a1612" stroke-width="2"></path>
  <path d="M -8 -82 Q 0 -80 8 -82" stroke="#e8645c" stroke-width="2" fill="none" opacity="0.9"></path>
  
  <g transform="translate(78 -135)">
    <circle cy="8" r="5" fill="#c89a3a" stroke="#1a1612" stroke-width="1.5"></circle>
    <circle cy="8" r="2" fill="#8a2a26"></circle>
    <line x1="0" y1="13" x2="0" y2="22" stroke="#1a1612" stroke-width="1.2"></line>
    <path d="M -7 22 L 7 22 L 9 28 L 0 38 L -9 28 Z" fill="#c89a3a" stroke="#1a1612" stroke-width="1.5"></path>
    <path d="M -4 24 L 4 24 L 5 28 L 0 35 L -5 28 Z" fill="#8a2a26"></path>
  </g>
  <g transform="translate(-78 -135)">
    <circle cy="8" r="5" fill="#c89a3a" stroke="#1a1612" stroke-width="1.5"></circle>
    <circle cy="8" r="2" fill="#8a2a26"></circle>
  </g>
  
  <path d="M -36 -60 Q -38 -38 -34 -18 L 34 -18 Q 38 -38 36 -60 Q 18 -55 0 -54 Q -18 -55 -36 -60 Z" fill="#dfb88a" stroke="#1a1612" stroke-width="3"></path>
  
  <g fill="#fbf6e8" stroke="#1a1612" stroke-width="1.2">
    <circle cx="-58" cy="-32" r="3.6"></circle><circle cx="-48" cy="-28" r="3.8"></circle><circle cx="-37" cy="-24" r="4"></circle>
    <circle cx="-25" cy="-21" r="4.2"></circle><circle cx="-12" cy="-19" r="4.4"></circle><circle cx="0" cy="-18" r="4.6"></circle>
    <circle cx="12" cy="-19" r="4.4"></circle><circle cx="25" cy="-21" r="4.2"></circle><circle cx="37" cy="-24" r="4"></circle>
    <circle cx="48" cy="-28" r="3.8"></circle><circle cx="58" cy="-32" r="3.6"></circle>
  </g>
  
  <g transform="translate(0 -2)">
    <path d="M -16 -10 Q -18 -4 -14 2 L 0 18 L 14 2 Q 18 -4 16 -10 Q 8 -14 0 -12 Q -8 -14 -16 -10 Z" fill="#c89a3a" stroke="#1a1612" stroke-width="2"></path>
    <path d="M -10 -7 L 10 -7 L 12 0 L 0 14 L -12 0 Z" fill="#8a2a26" stroke="#1a1612" stroke-width="1.5"></path>
    <path d="M -3 -2 L 3 -2 L 4 1 L 0 7 L -4 1 Z" fill="#e8645c"></path>
  </g>
  
  <path d="M -210 14 Q -195 0 -180 14 Q -163 -8 -145 8 Q -125 -14 -110 4 Q -88 -18 -70 0 Q -50 -16 -32 -2 Q -14 -14 0 -8 Q 14 -14 32 -2 Q 50 -16 70 0 Q 88 -18 110 4 Q 125 -14 145 8 Q 163 -8 180 14 Q 195 0 210 14 L 210 22 L -210 22 Z" fill="#2d4a32" stroke="#1a1612" stroke-width="2.8"></path>
  <g stroke="#1a1612" stroke-width="1.5" fill="none">
    <path d="M -180 14 L -180 22"></path><path d="M -145 8 L -145 22"></path><path d="M -110 4 L -110 22"></path>
    <path d="M -70 0 L -70 22"></path><path d="M -32 -2 L -32 22"></path><path d="M 0 -8 L 0 22"></path>
    <path d="M 32 -2 L 32 22"></path><path d="M 70 0 L 70 22"></path><path d="M 110 4 L 110 22"></path>
    <path d="M 145 8 L 145 22"></path><path d="M 180 14 L 180 22"></path>
  </g>
  <g transform="translate(0 12)">
    <ellipse rx="9" ry="6" fill="#c89a3a" stroke="#1a1612" stroke-width="1.8"></ellipse>
    <ellipse rx="6" ry="3.5" fill="#8a2a26" stroke="#1a1612" stroke-width="1"></ellipse>
  </g>
</symbol></defs>

<rect width="750" height="1050" fill="#f1e7d0"></rect>
<rect x="20" y="20" width="710" height="1010" rx="40" ry="40" fill="none" stroke="#1a1612" stroke-width="6"></rect>
<rect x="35" y="35" width="680" height="980" rx="30" ry="30" fill="none" stroke="#1a1612" stroke-width="2"></rect>

<g font-family="Georgia, &#39;Times New Roman&#39;, serif" font-weight="700" fill="#1a1612">
  <text x="100" y="180" font-size="124" text-anchor="middle">Q</text>
  <g transform="translate(100 250) scale(0.72)"><path d="M 0 -50 C -20 -20 -50 0 -50 25 C -50 45 -30 50 -15 45 C -8 42 -3 38 -2 30 L -10 50 L 10 50 L 2 30 C 3 38 8 42 15 45 C 30 50 50 45 50 25 C 50 0 20 -20 0 -50 Z" fill="#1a1612"></path></g>
</g>
<g transform="rotate(180 375 525)">
<g font-family="Georgia, &#39;Times New Roman&#39;, serif" font-weight="700" fill="#1a1612">
  <text x="100" y="180" font-size="124" text-anchor="middle">Q</text>
  <g transform="translate(100 250) scale(0.72)"><path d="M 0 -50 C -20 -20 -50 0 -50 25 C -50 45 -30 50 -15 45 C -8 42 -3 38 -2 30 L -10 50 L 10 50 L 2 30 C 3 38 8 42 15 45 C 30 50 50 45 50 25 C 50 0 20 -20 0 -50 Z" fill="#1a1612"></path></g>
</g></g>
<rect x="195" y="195" width="360" height="660" rx="18" ry="18" fill="#f1e7d0" stroke="#1a1612" stroke-width="3"></rect>

<g>
  
  <use href="#rose-r" x="80" y="200" width="100" height="100"></use>
  <use href="#rose-y" x="570" y="200" width="100" height="100"></use>
  <use href="#rose-r" x="80" y="750" width="100" height="100"></use>
  <use href="#rose-y" x="570" y="750" width="100" height="100"></use>
  
  <use href="#leaf-w" x="180" y="240" width="60" height="30" transform="rotate(20 210 255)"></use>
  <use href="#leaf-w" x="510" y="240" width="60" height="30" transform="rotate(-20 540 255)"></use>
  <use href="#leaf-w" x="180" y="800" width="60" height="30" transform="rotate(-20 210 815)"></use>
  <use href="#leaf-w" x="510" y="800" width="60" height="30" transform="rotate(20 540 815)"></use>
  
  <g stroke="#1a1612" stroke-width="2.5" fill="none" stroke-linecap="round">
    <path d="M 130 290 Q 110 400 130 525 Q 150 650 130 760"></path>
    <path d="M 620 290 Q 640 400 620 525 Q 600 650 620 760"></path>
  </g>
  <use href="#leaf-w" x="100" y="380" width="55" height="28" transform="rotate(70 128 394)"></use>
  <use href="#leaf-w" x="100" y="640" width="55" height="28" transform="rotate(110 128 654)"></use>
  <use href="#leaf-w" x="595" y="380" width="55" height="28" transform="rotate(-70 622 394)"></use>
  <use href="#leaf-w" x="595" y="640" width="55" height="28" transform="rotate(-110 622 654)"></use>
</g>

<g transform="translate(375 525)">
  <use href="#queen-half" x="-220" y="-340" width="440" height="360"></use>
</g>

<g transform="translate(375 525) rotate(180)">
  <use href="#queen-half" x="-220" y="-340" width="440" height="360"></use>
</g>

<line x1="200" y1="525" x2="550" y2="525" stroke="#1a1612" stroke-width="1.5" stroke-dasharray="4 4"></line>


<g>
  <g transform="translate(375 140) scale(0.85)"><path d="M 0 -50 C -20 -20 -50 0 -50 25 C -50 45 -30 50 -15 45 C -8 42 -3 38 -2 30 L -10 50 L 10 50 L 2 30 C 3 38 8 42 15 45 C 30 50 50 45 50 25 C 50 0 20 -20 0 -50 Z" fill="#1a1612"></path></g>
  <g transform="translate(375 910) rotate(180) scale(0.85)"><path d="M 0 -50 C -20 -20 -50 0 -50 25 C -50 45 -30 50 -15 45 C -8 42 -3 38 -2 30 L -10 50 L 10 50 L 2 30 C 3 38 8 42 15 45 C 30 50 50 45 50 25 C 50 0 20 -20 0 -50 Z" fill="#1a1612"></path></g>
</g>
</svg>